<svg id="a55cb679-f0ae-4270-bbdb-53d69064e036" data-name="Capa 1" xmlns="http://www.w3.org/2000/svg" viewBox="0 0 419.85 957.5"><defs><style>.f73aebe4-f856-475c-a09c-04ffaaaa79ae{fill:#271b27;opacity:0.1;}.f8ebdf47-9b94-4970-8744-03aabeb9bf74{fill:#f6ad84;}.f30ba247-a664-40f9-9496-e14d20d2dca2{fill:#f18868;}.bfc3a0b4-7a35-407a-a7c0-cae4340a82a7{fill:#bf3718;}.eb08501e-ddc3-465e-8886-23d10069ceee{fill:#050707;}.a0afba4b-50da-43f6-b8c2-467be92a4d7e{fill:#dd9d05;}.b3d70c9d-a323-415f-b7fa-7c691cecb3c6{fill:#be8110;}.b739c200-5bab-4dc1-af83-5ce8ae28d395{fill:#fff;}.b6196d2e-2316-4796-afe3-bf49149ed95d{fill:#2d2d2d;}.a78f14af-2935-404e-9f92-93e3899f3d83{fill:#e2e1e1;}.b699f552-0895-4925-9421-1f583b36882e{fill:#32324b;}</style></defs><ellipse class="f73aebe4-f856-475c-a09c-04ffaaaa79ae" cx="201.67" cy="933.63" rx="157.28" ry="23.86"/><path class="f73aebe4-f856-475c-a09c-04ffaaaa79ae" d="M709,675.27C695.7,871.33,448.33,950.79,326.21,796.83c-24.94-31.44-30.9-107.26-24.44-147.26,26-161.19,108.71-177.66,47-279.63S281.31,82.87,451.7,84.32s60.55,273.78,177.92,350C683.3,469.11,715.93,573.17,709,675.27Z" transform="translate(-290.07 -21.25)"/><path class="f73aebe4-f856-475c-a09c-04ffaaaa79ae" d="M644.42,390.2A26,26,0,0,1,615.76,382c-11.08-13.43-28.77-40.55-23.51-72.12,7.53-45.1,64.67-9.1,69.17,41.59C663.67,376.77,654.33,386.65,644.42,390.2Z" transform="translate(-290.07 -21.25)"/><path class="f73aebe4-f856-475c-a09c-04ffaaaa79ae" d="M583.56,271.6a13.56,13.56,0,0,1-9.18-12.55c-.29-9.08,1.08-25.92,13.33-37.26C605.22,205.6,617.29,238.7,603,261,595.79,272.21,588.78,273.3,583.56,271.6Z" transform="translate(-290.07 -21.25)"/><path class="f73aebe4-f856-475c-a09c-04ffaaaa79ae" d="M302.85,492a13.56,13.56,0,0,1-11.31-10.68c-1.92-8.88-3.63-25.69,6.37-39.06,14.28-19.1,32.15,11.27,22.1,35.84C315,490.35,308.29,492.7,302.85,492Z" transform="translate(-290.07 -21.25)"/><path class="f8ebdf47-9b94-4970-8744-03aabeb9bf74" d="M620.12,457.89a90.39,90.39,0,0,1,16.49,5.25c7.39,3.37,16.25,7.7,20.77,9.86,5.43,2.6.71,7.42-7,4.23s-9.49-3.88-9.49-3.88,25.86,19.37,30.24,26.87c4,6.84-10.79-3.13-23.48-10.69,0,0,21.72,23,20.38,28.26-1.75,6.85-28-21.15-28-21.15s16.28,23.52,13.19,25.08c-3.43,1.73-23-20.31-23-20.31s9.75,17.14,7.34,17.44c-4.77.6-32.5-30.94-33.43-50.11C604.1,468.74,615.44,457.88,620.12,457.89Z" transform="translate(-290.07 -21.25)"/><path class="f30ba247-a664-40f9-9496-e14d20d2dca2" d="M645.29,483.09s-8.72,12.43-22.66,14.53C622.63,497.62,636.25,501.94,645.29,483.09Z" transform="translate(-290.07 -21.25)"/><path class="f30ba247-a664-40f9-9496-e14d20d2dca2" d="M629.89,483.22s-16.42-6.68-10.13-21C619.76,462.21,607.49,476.05,629.89,483.22Z" transform="translate(-290.07 -21.25)"/><path class="bfc3a0b4-7a35-407a-a7c0-cae4340a82a7" d="M562.86,351.39C550.35,243.73,526,200.63,526,200.63c-22,90.14-4.84,139.16,2.57,162.67S604.1,471.55,604.1,471.55c5.26-6.61,12.31-11.4,19-12.95,0,0-21.59-38.06-29.23-52.31S562.86,351.39,562.86,351.39Z" transform="translate(-290.07 -21.25)"/><path class="eb08501e-ddc3-465e-8886-23d10069ceee" d="M557.74,706.15,540.45,915H510c-7.05-81.38-18.42-152.68-5.6-208.82-12.92-63.28-22.52-206.92-22.52-206.92,23.25-10.64,60.53-20.35,60.53-20.35C554.75,549.12,557.74,706.15,557.74,706.15Z" transform="translate(-290.07 -21.25)"/><path class="a0afba4b-50da-43f6-b8c2-467be92a4d7e" d="M611.18,964.19H511.56a9.23,9.23,0,0,1-9.15-8,9,9,0,0,1-.05-1.94l4.05-52.33a58,58,0,0,1,9.95-3.28,10.1,10.1,0,0,0,7.38-6.7c.08-.25.14-.51.21-.76,2.28-10.07,16.8-13.28,19.48-3.44.35,1.28.65,2.51.91,3.7.06.29.13.6.18.88.43,2.11.75,4.06,1,5.77,0,0,0,.07,0,.11a57.1,57.1,0,0,1,.5,7.11c1.32,1.68,2.59,3.32,3.82,4.94.64.81,1.24,1.61,1.84,2.4,1.31,1.7,2.59,3.36,3.84,5,.58.75,1.15,1.48,1.73,2.19,1.38,1.73,2.75,3.37,4.11,4.9.61.7,1.23,1.37,1.86,2,5.13,5.4,10.32,9.09,16.44,9.94,10.8,1.49,28.45,2.68,37,18.53a5.19,5.19,0,0,1,.43,1A6.14,6.14,0,0,1,611.18,964.19Z" transform="translate(-290.07 -21.25)"/><path class="b3d70c9d-a323-415f-b7fa-7c691cecb3c6" d="M611.18,964.19H511.56a9.23,9.23,0,0,1-9.15-8H617A6.14,6.14,0,0,1,611.18,964.19Z" transform="translate(-290.07 -21.25)"/><path class="b739c200-5bab-4dc1-af83-5ce8ae28d395" d="M551.66,912.66c-1.15,1.7-3.5,3.75-8.24,5.64q-1.21.5-2.64,1l-.86-2.6c.94-.31,1.79-.62,2.56-.93,5.45-2.2,6.94-4.36,7.34-5.47C550.46,911.07,551.06,911.87,551.66,912.66Z" transform="translate(-290.07 -21.25)"/><circle class="b739c200-5bab-4dc1-af83-5ce8ae28d395" cx="250.27" cy="896.71" r="3.09"/><path class="b739c200-5bab-4dc1-af83-5ce8ae28d395" d="M557.23,919.8a19.45,19.45,0,0,1-6.82,4.3c-.95.41-2,.79-3.16,1.18l-.86-2.61c1.08-.36,2.05-.72,2.91-1.07,3.49-1.45,5.28-2.88,6.2-4C556.08,918.36,556.65,919.09,557.23,919.8Z" transform="translate(-290.07 -21.25)"/><path class="b739c200-5bab-4dc1-af83-5ce8ae28d395" d="M550.42,924a3.09,3.09,0,1,1-3.09-3.08A3.09,3.09,0,0,1,550.42,924Z" transform="translate(-290.07 -21.25)"/><path class="b739c200-5bab-4dc1-af83-5ce8ae28d395" d="M563.2,926.72a19.73,19.73,0,0,1-6.61,4.11c-1,.41-2,.82-3.21,1.2l-.85-2.61c1.09-.35,2.06-.72,2.93-1.09a17.12,17.12,0,0,0,5.88-3.63C562,925.4,562.57,926.07,563.2,926.72Z" transform="translate(-290.07 -21.25)"/><path class="b739c200-5bab-4dc1-af83-5ce8ae28d395" d="M556.59,930.73a3.09,3.09,0,1,1-3.08-3.09A3.09,3.09,0,0,1,556.59,930.73Z" transform="translate(-290.07 -21.25)"/><path class="b739c200-5bab-4dc1-af83-5ce8ae28d395" d="M545.48,898.1a68.94,68.94,0,0,0-8.87.5l0-5a22.4,22.4,0,0,1,7.86-1.28C545,894.44,545.27,896.39,545.48,898.1Z" transform="translate(-290.07 -21.25)"/><path class="b6196d2e-2316-4796-afe3-bf49149ed95d" d="M465.46,499.23s-.78,82.89-12.55,206.92c-7.66,67.58-16.2,152.37-25.68,208.82h-30.5l-4.3-208.82s-7-128.5,8.18-217Z" transform="translate(-290.07 -21.25)"/><path class="a0afba4b-50da-43f6-b8c2-467be92a4d7e" d="M454,957.23c-.87,17.55-55.76,11.51-64.53,6.24-3.39-2-4.81-6-5.08-10.71-.43-7.57,2.07-17.26,4.22-24.86,3.52-12.36,3-12.13,5.47-20.59,0,0-.63-13.74,17.36-19s24.57,29,27.64,35.56c2.81,6,13.74,14.28,14.87,29.12A32.9,32.9,0,0,1,454,957.23Z" transform="translate(-290.07 -21.25)"/><path class="b739c200-5bab-4dc1-af83-5ce8ae28d395" d="M401.62,918.42l-1.44-2.2c.67-.44,16.54-10.62,30.35-4.56l-1.06,2.41C417,908.58,401.77,918.32,401.62,918.42Z" transform="translate(-290.07 -21.25)"/><path class="b739c200-5bab-4dc1-af83-5ce8ae28d395" d="M403.18,933.7l-1.43-2.21c.67-.43,16.54-10.61,30.35-4.55L431,929.35C418.52,923.86,403.34,933.6,403.18,933.7Z" transform="translate(-290.07 -21.25)"/><path class="b739c200-5bab-4dc1-af83-5ce8ae28d395" d="M402.4,926.06,401,923.85c.67-.43,16.54-10.61,30.35-4.55l-1.05,2.41C417.73,916.22,402.55,926,402.4,926.06Z" transform="translate(-290.07 -21.25)"/><path class="b739c200-5bab-4dc1-af83-5ce8ae28d395" d="M403.71,917.73a3,3,0,1,1-3-3A3,3,0,0,1,403.71,917.73Z" transform="translate(-290.07 -21.25)"/><path class="b739c200-5bab-4dc1-af83-5ce8ae28d395" d="M403.86,925a3,3,0,1,1-3-3A3,3,0,0,1,403.86,925Z" transform="translate(-290.07 -21.25)"/><path class="b739c200-5bab-4dc1-af83-5ce8ae28d395" d="M405.43,932.21a3,3,0,1,1-3-3A3,3,0,0,1,405.43,932.21Z" transform="translate(-290.07 -21.25)"/><path class="b739c200-5bab-4dc1-af83-5ce8ae28d395" d="M434.53,927.93a3,3,0,1,1-3-3A3,3,0,0,1,434.53,927.93Z" transform="translate(-290.07 -21.25)"/><path class="b739c200-5bab-4dc1-af83-5ce8ae28d395" d="M433.75,920a3,3,0,1,1-3-3A3,3,0,0,1,433.75,920Z" transform="translate(-290.07 -21.25)"/><path class="b739c200-5bab-4dc1-af83-5ce8ae28d395" d="M433,912.13a3,3,0,1,1-3-3A3,3,0,0,1,433,912.13Z" transform="translate(-290.07 -21.25)"/><path class="b3d70c9d-a323-415f-b7fa-7c691cecb3c6" d="M454,957.23c-.87,17.55-55.76,11.51-64.53,6.24-3.39-2-4.81-6-5.08-10.71,5.77,3.29,15.93,7.39,31.11,7.66,18.62.34,32-3.43,38.45-7.42A32.9,32.9,0,0,1,454,957.23Z" transform="translate(-290.07 -21.25)"/><path class="b739c200-5bab-4dc1-af83-5ce8ae28d395" d="M419.15,893.74s-8.35-.88-15.44,3.07l.8,5.56s9.95-2.92,16.53-2.48A13.08,13.08,0,0,0,419.15,893.74Z" transform="translate(-290.07 -21.25)"/><path class="b6196d2e-2316-4796-afe3-bf49149ed95d" d="M404.92,467.38s-10.33,36.54-10.23,69.1c0,0,50.57,22.13,114.9-2.32a51.82,51.82,0,0,0,30.24-65.83c-.11-.32-.22-.63-.34-.95C539.49,467.38,457.23,464,404.92,467.38Z" transform="translate(-290.07 -21.25)"/><path class="bfc3a0b4-7a35-407a-a7c0-cae4340a82a7" d="M557.74,488.46a264.12,264.12,0,0,1-32.91,12.84c-3,.95-6.11,1.85-9.19,2.68a203.56,203.56,0,0,1-50,7.28c-28,.39-56.34-5.86-82.75-22.16l17.84-106L371.21,210.57l44.18-15.13,2.37-.82,4.35-1.48,1.84-.64,3.73-1.27,7.87-2.7,46.73,6.25,2.82.38,4.79.64,2.67.36L526,200.62Z" transform="translate(-290.07 -21.25)"/><path class="b739c200-5bab-4dc1-af83-5ce8ae28d395" d="M515.64,504a203.56,203.56,0,0,1-50,7.28c.75-4.76,1.37-9.69,1.85-14.76q.38-3.79.63-7.7c.36-5.1.59-10.33.72-15.68.06-2.53.1-5.09.1-7.67q0-7.68-.19-15.61-.12-3.79-.28-7.64c-.22-5.13-.51-10.33-.88-15.57-.18-2.53-.36-5.07-.58-7.62q-.61-7.71-1.42-15.53c-.25-2.53-.53-5.07-.81-7.61q-.85-7.74-1.87-15.5c-.33-2.54-.67-5.09-1-7.62-.7-5.18-1.46-10.34-2.24-15.49-.39-2.55-.79-5.08-1.2-7.62q-1.23-7.8-2.58-15.5-.66-3.84-1.34-7.63-1.41-7.85-2.89-15.51c-.49-2.55-1-5.1-1.48-7.63q-1.56-7.89-3.16-15.54-.81-3.87-1.62-7.66c-1.14-5.31-2.28-10.51-3.42-15.56q-.87-3.89-1.75-7.67c-1.24-5.39-2.47-10.61-3.67-15.61-.62-2.62-1.25-5.2-1.87-7.7-1.36-5.53-2.68-10.77-3.93-15.66-.69-2.68-1.36-5.26-2-7.72-1.78-6.8-3.4-12.77-4.79-17.75l3.73-1.27,7.87-2.7,46.73,6.25,2.82.38q1.26,6.61,2.46,13.25.69,3.76,1.35,7.54,1.33,7.55,2.58,15.12.64,3.77,1.24,7.55,1.22,7.56,2.36,15.12c.39,2.52.76,5,1.13,7.55.74,5.06,1.47,10.1,2.16,15.12.36,2.53.7,5.06,1,7.59q1,7.61,2,15.13c.32,2.55.63,5.08.95,7.6q.93,7.63,1.79,15.15.44,3.83.86,7.62.86,7.67,1.62,15.17.4,3.84.77,7.64c.53,5.13,1,10.2,1.46,15.19q.36,3.87.7,7.67c.46,5.16.89,10.24,1.29,15.21q.32,3.9.61,7.69c.39,5.21.77,10.3,1.1,15.25q.29,3.92.52,7.71.51,7.91.92,15.31c.15,2.62.29,5.2.42,7.72.27,5.36.5,10.49.69,15.36.11,2.66.2,5.25.28,7.75q.27,8.34.38,15.43c0,2.75.07,5.36.07,7.81C515.84,495.69,515.77,500.25,515.64,504Z" transform="translate(-290.07 -21.25)"/><path class="a78f14af-2935-404e-9f92-93e3899f3d83" d="M488.91,216a321,321,0,0,1-40.67,2.36q-8.44,0-17.49-.34c-.69-2.68-1.36-5.26-2-7.72,22.4.92,41.88.32,58.82-1.84Q488.25,212.18,488.91,216Z" transform="translate(-290.07 -21.25)"/><path class="a78f14af-2935-404e-9f92-93e3899f3d83" d="M492.73,238.62a321.74,321.74,0,0,1-45,2.85c-3.65,0-7.37-.05-11.19-.14-.62-2.62-1.25-5.2-1.87-7.7,21.61.61,40.41-.24,56.81-2.56Q492.14,234.84,492.73,238.62Z" transform="translate(-290.07 -21.25)"/><path class="a78f14af-2935-404e-9f92-93e3899f3d83" d="M496.22,261.29a321.92,321.92,0,0,1-49.05,3.35l-5.2,0q-.87-3.89-1.75-7.67c20.83.31,39-.75,54.87-3.2C495.48,256.26,495.85,258.78,496.22,261.29Z" transform="translate(-290.07 -21.25)"/><path class="a78f14af-2935-404e-9f92-93e3899f3d83" d="M499.42,284c-15.31,2.54-32.68,3.81-52.41,3.83q-.81-3.87-1.62-7.66c20.07.06,37.63-1.18,53-3.76C498.74,278.94,499.08,281.47,499.42,284Z" transform="translate(-290.07 -21.25)"/><path class="a78f14af-2935-404e-9f92-93e3899f3d83" d="M502.34,306.73A316,316,0,0,1,451.65,311c-.49-2.55-1-5.1-1.48-7.63,19.37-.18,36.34-1.59,51.22-4.24C501.71,301.68,502,304.21,502.34,306.73Z" transform="translate(-290.07 -21.25)"/><path class="a78f14af-2935-404e-9f92-93e3899f3d83" d="M505,329.5a312,312,0,0,1-49.11,4.64q-.66-3.84-1.34-7.63c18.72-.38,35.15-1.91,49.59-4.63Q504.57,325.71,505,329.5Z" transform="translate(-290.07 -21.25)"/><path class="a78f14af-2935-404e-9f92-93e3899f3d83" d="M507.38,352.31a307,307,0,0,1-47.72,4.95c-.39-2.55-.79-5.08-1.2-7.62a299,299,0,0,0,48.15-5Q507,348.51,507.38,352.31Z" transform="translate(-290.07 -21.25)"/><path class="a78f14af-2935-404e-9f92-93e3899f3d83" d="M509.54,375.17a305.56,305.56,0,0,1-46.62,5.2c-.33-2.54-.67-5.09-1-7.62a296.45,296.45,0,0,0,46.94-5.25Q509.2,371.37,509.54,375.17Z" transform="translate(-290.07 -21.25)"/><path class="a78f14af-2935-404e-9f92-93e3899f3d83" d="M511.44,398.07a303.38,303.38,0,0,1-45.84,5.41c-.25-2.53-.53-5.07-.81-7.61a295,295,0,0,0,46-5.49Q511.15,394.28,511.44,398.07Z" transform="translate(-290.07 -21.25)"/><path class="a78f14af-2935-404e-9f92-93e3899f3d83" d="M513.06,421a304,304,0,0,1-45.46,5.6c-.18-2.53-.36-5.07-.58-7.62a294.52,294.52,0,0,0,45.52-5.69Q512.83,417.24,513.06,421Z" transform="translate(-290.07 -21.25)"/><path class="a78f14af-2935-404e-9f92-93e3899f3d83" d="M514.4,444.06a307.44,307.44,0,0,1-45.64,5.78q-.12-3.79-.28-7.64a299.15,299.15,0,0,0,45.5-5.86C514.13,439,514.27,441.54,514.4,444.06Z" transform="translate(-290.07 -21.25)"/><path class="a78f14af-2935-404e-9f92-93e3899f3d83" d="M515.37,467.17a315.46,315.46,0,0,1-46.52,5.95c.06-2.53.1-5.09.1-7.67a303.19,303.19,0,0,0,46.14-6C515.2,462.08,515.29,464.67,515.37,467.17Z" transform="translate(-290.07 -21.25)"/><path class="a78f14af-2935-404e-9f92-93e3899f3d83" d="M515.82,490.41a328.34,328.34,0,0,1-48.32,6.09q.38-3.79.63-7.7a311.55,311.55,0,0,0,47.62-6.2C515.8,485.35,515.82,488,515.82,490.41Z" transform="translate(-290.07 -21.25)"/><path class="b699f552-0895-4925-9421-1f583b36882e" d="M532.14,62.84s11.84,7.8,7.59,29-12.44,23.47-12.44,23.47S514.87,68.36,532.14,62.84Z" transform="translate(-290.07 -21.25)"/><path class="f8ebdf47-9b94-4970-8744-03aabeb9bf74" d="M477.69,161.93l-1.5,26.82L475.5,201c-15.45,11.43-40.56-4.3-40.56-4.3L432.25,157c7.15-4.82,25.56-.81,36.63,2.26C474.1,160.7,477.69,161.93,477.69,161.93Z" transform="translate(-290.07 -21.25)"/><path class="f30ba247-a664-40f9-9496-e14d20d2dca2" d="M477.69,161.93l-1.5,26.82c-18.14-4.19-33.34-29.33-33.34-29.33l26-.17C474.1,160.7,477.69,161.93,477.69,161.93Z" transform="translate(-290.07 -21.25)"/><path class="b699f552-0895-4925-9421-1f583b36882e" d="M529.75,73.64s28.93-13.46,20.45-37.21S507.11,23.6,476,24.78c-50.11,1.91-65.81,28-64.54,55.12s1,63.54,13.29,77.11,20.7-5.61,27.06-22.59S497.43,65.47,529.75,73.64Z" transform="translate(-290.07 -21.25)"/><path class="f8ebdf47-9b94-4970-8744-03aabeb9bf74" d="M532.37,96.73c0,.92,0,1.85-.06,2.8-.52,16.85-3.42,37.33-6.28,54a31.84,31.84,0,0,1-37.67,25.82c-21.17-4.27-47.28-10.76-59.19-18.59-3.62-2.38-5.92-4.88-6.38-7.48a177.1,177.1,0,0,1-1.93-23.38C420,102.55,422,68.45,422,68.45c25.45-31.61,96.37-19.27,107.17,3.85C531.66,77.6,532.52,86.37,532.37,96.73Z" transform="translate(-290.07 -21.25)"/><path class="b699f552-0895-4925-9421-1f583b36882e" d="M490.32,112c0,3.55-1.58,6.43-3.53,6.43s-3.54-2.88-3.54-6.43,1.58-6.44,3.54-6.44S490.32,108.45,490.32,112Z" transform="translate(-290.07 -21.25)"/><path class="b699f552-0895-4925-9421-1f583b36882e" d="M526.5,112c0,3.55-1.58,6.43-3.53,6.43s-3.54-2.88-3.54-6.43,1.59-6.44,3.54-6.44S526.5,108.45,526.5,112Z" transform="translate(-290.07 -21.25)"/><path class="b699f552-0895-4925-9421-1f583b36882e" d="M420.74,104.84s11.33-7.38,20.87,5.79H449s-.43-15.24,3.18-23.52,17.81-8,19.93-17.81c0,0,33.55,13.35,57.6,4.34S481.7,24.55,446.92,44.06,415.35,78.88,420.74,104.84Z" transform="translate(-290.07 -21.25)"/><path class="b699f552-0895-4925-9421-1f583b36882e" d="M471.46,103.09s3.4-7,9.93-8.74a16.68,16.68,0,0,1,12.53,1.12,2.16,2.16,0,0,1,1,2.66h0a2.17,2.17,0,0,1-3,1.22C488.28,97.64,480.23,95.45,471.46,103.09Z" transform="translate(-290.07 -21.25)"/><path class="b699f552-0895-4925-9421-1f583b36882e" d="M532.37,96.73c0,.92,0,1.85-.06,2.8a17.38,17.38,0,0,0-15.17-.18,2.32,2.32,0,0,1-.93.2,2.18,2.18,0,0,1-1.06-4.08,16.69,16.69,0,0,1,12.53-1.12A13.32,13.32,0,0,1,532.37,96.73Z" transform="translate(-290.07 -21.25)"/><path class="b699f552-0895-4925-9421-1f583b36882e" d="M429.17,160.75c-3.62-2.38-5.92-4.88-6.38-7.48a177.1,177.1,0,0,1-1.93-23.38l18.73,12.86S439.83,156.08,429.17,160.75Z" transform="translate(-290.07 -21.25)"/><path class="f8ebdf47-9b94-4970-8744-03aabeb9bf74" d="M441.61,110.63s-11.36-13.76-20.87-5.79c-10.48,8.79-2.45,38.59,18.85,37.92Z" transform="translate(-290.07 -21.25)"/><path class="f30ba247-a664-40f9-9496-e14d20d2dca2" d="M440.11,136.29a1.87,1.87,0,0,1-1.86-1.66c-1.73-15.07-10.68-17.39-11.06-17.48a1.88,1.88,0,0,1,.83-3.66c.49.11,11.9,2.85,14,20.72a1.87,1.87,0,0,1-1.64,2.07Z" transform="translate(-290.07 -21.25)"/><path class="f30ba247-a664-40f9-9496-e14d20d2dca2" d="M428.15,126.73a1.8,1.8,0,0,1-1.25-.48,1.84,1.84,0,0,1-.15-2.62,10.6,10.6,0,0,1,10-2.9,1.87,1.87,0,0,1-.81,3.66,6.87,6.87,0,0,0-6.41,1.74A1.89,1.89,0,0,1,428.15,126.73Z" transform="translate(-290.07 -21.25)"/><path class="f30ba247-a664-40f9-9496-e14d20d2dca2" d="M507.88,149.83c-7.47,0-17.95-2-26-11.29a1.87,1.87,0,1,1,2.83-2.46c12.26,14.09,31.48,9.09,31.67,9a1.88,1.88,0,0,1,1,3.62A38.65,38.65,0,0,1,507.88,149.83Z" transform="translate(-290.07 -21.25)"/><path class="f30ba247-a664-40f9-9496-e14d20d2dca2" d="M499.88,158.89a18.49,18.49,0,0,1-14.6-6.54,1.88,1.88,0,0,1,3-2.24c.22.29,5,6.4,14.94,4.75a1.87,1.87,0,1,1,.62,3.69A23.57,23.57,0,0,1,499.88,158.89Z" transform="translate(-290.07 -21.25)"/><path class="f30ba247-a664-40f9-9496-e14d20d2dca2" d="M507.36,132.68a1.88,1.88,0,0,1-1.14-3.37l5-3.81-4.33-1.12a1.89,1.89,0,0,1-1.38-1.52l-1.91-11.93a1.87,1.87,0,1,1,3.7-.59L509,121.05l6.87,1.79a1.87,1.87,0,0,1,.66,3.3l-8,6.15A1.87,1.87,0,0,1,507.36,132.68Z" transform="translate(-290.07 -21.25)"/><path class="f8ebdf47-9b94-4970-8744-03aabeb9bf74" d="M403.14,498.85s8.33,2.66,10.83,7.52c0,0,0,30.82-15.52,44.26,0,0-7.63-18.54-15.52-36.3Z" transform="translate(-290.07 -21.25)"/><path class="bfc3a0b4-7a35-407a-a7c0-cae4340a82a7" d="M371.21,210.57s-31,96.87-33.73,146.69c0,0,0,93.18,45.45,157.07l20.21-15.48S377.67,406.15,377.67,370c0,0,25.79-67.13,30-93.59C407.69,276.41,390.35,210.57,371.21,210.57Z" transform="translate(-290.07 -21.25)"/></svg>