<svg id="eeac2bb2-0eae-4831-9083-492885c6e3b5" data-name="Capa 2" xmlns="http://www.w3.org/2000/svg" viewBox="0 0 378.83 943.29"><defs><style>.b6a61a62-374d-4f63-9fc7-369751c71bfe,.ecc40d9d-b2e6-4492-a78e-38c35fdccdcd{fill:#32324b;}.a96d90e9-ad82-47bc-9efc-01f190473d8c,.b6a61a62-374d-4f63-9fc7-369751c71bfe{opacity:0.1;}.a96d90e9-ad82-47bc-9efc-01f190473d8c{fill:#261b26;}.e6ab572b-c289-4954-9228-e3b108515cdd{fill:#050707;}.b65f31e2-412b-4969-8e99-c8b7e8fff02d{fill:#dd9d05;}.b46b2752-7c0b-4d7a-b1d6-29b8b1ac02f5{fill:#be8110;}.f200b3b6-e416-4f9d-bd10-381cf95e523e{fill:#fff;}.a0dc0f90-42ef-4185-a115-a2a911ccf9fe{fill:#2d2d2d;}.b3d94455-9bf7-4772-87d6-1fa6cbccb9ab{fill:#f6ad84;}.b6cbc640-160e-4e4a-9093-70d2d451c413{fill:#f18868;}.fd312b24-82f2-450f-a690-97b0eb8decfe{fill:#bf3718;}.aac0e096-cfd4-4730-ab0c-072e3a4fc70d{fill:#e2e1e1;}.a0fc58fe-3426-45f8-9b9d-494304d04e38{fill:#921913;}.a817d042-537e-4746-8ba2-ab30b33a488a{fill:#eb5c68;}</style></defs><ellipse class="b6a61a62-374d-4f63-9fc7-369751c71bfe" cx="196.86" cy="921.76" rx="141.91" ry="21.53"/><path class="a96d90e9-ad82-47bc-9efc-01f190473d8c" d="M311.42,697.82c12,176.91,235.2,248.6,345.39,109.68,22.5-28.37,27.88-96.78,22.05-132.87-23.5-145.44-98.09-160.3-42.4-252.3s60.86-259-92.88-257.72S489,411.64,383.05,480.37C334.61,511.8,305.17,605.69,311.42,697.82Z" transform="translate(-310.59 -28.36)"/><path class="b6a61a62-374d-4f63-9fc7-369751c71bfe" d="M369.69,440.6a23.47,23.47,0,0,0,25.86-7.43c10-12.13,26-36.6,21.21-65.08-6.79-40.69-58.35-8.21-62.41,37.53C352.33,428.48,360.75,437.4,369.69,440.6Z" transform="translate(-310.59 -28.36)"/><path class="b6a61a62-374d-4f63-9fc7-369751c71bfe" d="M424.6,333.59a12.23,12.23,0,0,0,8.29-11.32c.26-8.19-1-23.39-12-33.62-15.8-14.61-26.69,15.26-13.76,35.41C413.57,334.14,419.89,335.13,424.6,333.59Z" transform="translate(-310.59 -28.36)"/><path class="b6a61a62-374d-4f63-9fc7-369751c71bfe" d="M677.88,532.43a12.24,12.24,0,0,0,10.21-9.64c1.73-8,3.27-23.17-5.75-35.24-12.88-17.23-29,10.17-19.94,32.34C666.94,531,673,533.08,677.88,532.43Z" transform="translate(-310.59 -28.36)"/><path class="e6ab572b-c289-4954-9228-e3b108515cdd" d="M420,520.29l30.83,147.26,19.12,91.28,57.73,153.78L556,907.37s-12.82-58.54-15.41-89.73c-3.69-44.73-17.76-86.42-32.54-103.25L503.76,665,491.25,520.44Z" transform="translate(-310.59 -28.36)"/><path class="b65f31e2-412b-4969-8e99-c8b7e8fff02d" d="M474,957.1l92.31-.31a5,5,0,0,0,4.81-6.54l-.05-.16L556.24,902a4.16,4.16,0,0,0-5.62-2.58c-5.22,2.25-8.91,1.46-15.17-.25-10.77-2.93-11.57-4.21-14.7-2.54-2.8,1.49-4,3.32-4.26,5.3-.33,2.28.46,4.76,1.19,7.15a17.66,17.66,0,0,1,1,5.07,1.93,1.93,0,0,1,0,.24A7.43,7.43,0,0,1,518,917a21,21,0,0,1-3,4.45c-.55.66-1.13,1.28-1.71,1.88a55.76,55.76,0,0,1-4.35,4.05l-.61.5c-.83.06-1.64.15-2.45.26-15.45,2.18-27.82,13.86-34.21,22l-.69.89A3.82,3.82,0,0,0,474,957.1Z" transform="translate(-310.59 -28.36)"/><path class="b46b2752-7c0b-4d7a-b1d6-29b8b1ac02f5" d="M474,957.1l92.31-.31a5,5,0,0,0,4.81-6.54l-.05-.16H471.62l-.69.89A3.82,3.82,0,0,0,474,957.1Z" transform="translate(-310.59 -28.36)"/><path class="f200b3b6-e416-4f9d-bd10-381cf95e523e" d="M518,917a21.94,21.94,0,0,0,5.47,2.65c.75.26,1.56.51,2.44.75l.67-2.4c-.87-.24-1.66-.48-2.37-.74a16.8,16.8,0,0,1-5.48-2.84A7.43,7.43,0,0,1,518,917Z" transform="translate(-310.59 -28.36)"/><path class="f200b3b6-e416-4f9d-bd10-381cf95e523e" d="M523.41,919.32a2.81,2.81,0,1,0,2.67-3A2.81,2.81,0,0,0,523.41,919.32Z" transform="translate(-310.59 -28.36)"/><path class="f200b3b6-e416-4f9d-bd10-381cf95e523e" d="M513.24,923.31a22.6,22.6,0,0,0,4.11,1.89c.88.33,1.84.64,2.92.94l.66-2.41c-1-.28-1.89-.56-2.69-.85a22.11,22.11,0,0,1-3.29-1.45C514.4,922.09,513.82,922.71,513.24,923.31Z" transform="translate(-310.59 -28.36)"/><path class="f200b3b6-e416-4f9d-bd10-381cf95e523e" d="M517.33,925.09a2.81,2.81,0,1,0,2.67-2.94A2.82,2.82,0,0,0,517.33,925.09Z" transform="translate(-310.59 -28.36)"/><path class="f200b3b6-e416-4f9d-bd10-381cf95e523e" d="M505.83,928.12a19.6,19.6,0,0,0,6.2,3.48c.89.33,1.87.65,3,.95l.65-2.41c-1-.28-1.9-.57-2.71-.86a20.38,20.38,0,0,1-4.05-1.92l-.61.5C507.45,927.92,506.64,928,505.83,928.12Z" transform="translate(-310.59 -28.36)"/><path class="f200b3b6-e416-4f9d-bd10-381cf95e523e" d="M512,931.5a2.81,2.81,0,1,0,2.67-2.94A2.82,2.82,0,0,0,512,931.5Z" transform="translate(-310.59 -28.36)"/><path class="f200b3b6-e416-4f9d-bd10-381cf95e523e" d="M517.68,909.09c5.5,0,9.8.3,9.8.3l-.26-6.19a49.81,49.81,0,0,0-10.73-1.26C516.16,904.22,517,906.7,517.68,909.09Z" transform="translate(-310.59 -28.36)"/><path class="a0dc0f90-42ef-4185-a115-a2a911ccf9fe" d="M417,890.41l26.38,14.31s30.25-74.3,46.88-116.14,16.09-83.35,16.09-83.35c3.4-9.25,6.85-18.55,10.26-27.81,15.17-41.15,29.76-81.75,37.08-115.51,3.39-15.63,5.22-29.78,4.83-41.87l-77.3.39L467.57,664.69,463,690.17Z" transform="translate(-310.59 -28.36)"/><path class="a0dc0f90-42ef-4185-a115-a2a911ccf9fe" d="M546.19,591.08s-93.33-12.33-126.66-70.65l139-.39S553.61,554.72,546.19,591.08Z" transform="translate(-310.59 -28.36)"/><path class="b65f31e2-412b-4969-8e99-c8b7e8fff02d" d="M334.43,919.11l83.83,34.47A8.39,8.39,0,0,0,428.72,950a8.67,8.67,0,0,0,.72-1.61L444.14,903a53.54,53.54,0,0,0-7.24-6.21,9.15,9.15,0,0,1-3.89-8.19c0-.24.06-.47.09-.71,1.56-9.27-9.55-17-15.21-9.63q-1.09,1.43-2,2.79c-.16.23-.32.46-.46.68-1.09,1.63-2,3.16-2.8,4.52a.47.47,0,0,0-.06.09,52.65,52.65,0,0,0-2.88,5.81c-1.68,1-3.33,1.9-4.93,2.83-.81.46-1.59.93-2.37,1.39-1.7,1-3.34,1.93-5,2.84-.74.43-1.48.84-2.21,1.24-1.76,1-3.47,1.88-5.15,2.7-.76.37-1.51.73-2.27,1.06-6.19,2.76-11.82,4.07-17.27,2.67-9.6-2.49-24.86-7.6-37.52,2.8a5.17,5.17,0,0,0-.71.69A5.6,5.6,0,0,0,334.43,919.11Z" transform="translate(-310.59 -28.36)"/><path class="b46b2752-7c0b-4d7a-b1d6-29b8b1ac02f5" d="M334.43,919.1l83.83,34.48A8.39,8.39,0,0,0,428.72,950l-96.45-39.67A5.59,5.59,0,0,0,334.43,919.1Z" transform="translate(-310.59 -28.36)"/><path class="f200b3b6-e416-4f9d-bd10-381cf95e523e" d="M402.35,896.35c.38,1.82,1.65,4.36,5,7.6.57.55,1.2,1.12,1.89,1.72l1.62-1.89q-1-.88-1.83-1.68c-3.82-3.73-4.33-6.06-4.29-7.14C403.91,895.42,403.13,895.89,402.35,896.35Z" transform="translate(-310.59 -28.36)"/><path class="f200b3b6-e416-4f9d-bd10-381cf95e523e" d="M407.43,903.65a2.81,2.81,0,1,0,3.67-1.53A2.82,2.82,0,0,0,407.43,903.65Z" transform="translate(-310.59 -28.36)"/><path class="f200b3b6-e416-4f9d-bd10-381cf95e523e" d="M395.19,900.43a17.86,17.86,0,0,0,4.25,6c.66.68,1.41,1.36,2.25,2.09l1.63-1.9c-.79-.67-1.48-1.31-2.08-1.91a14.38,14.38,0,0,1-3.84-5.49C396.66,899.62,395.92,900,395.19,900.43Z" transform="translate(-310.59 -28.36)"/><path class="f200b3b6-e416-4f9d-bd10-381cf95e523e" d="M399.48,906.3a2.81,2.81,0,1,0,3.67-1.53A2.82,2.82,0,0,0,399.48,906.3Z" transform="translate(-310.59 -28.36)"/><path class="f200b3b6-e416-4f9d-bd10-381cf95e523e" d="M387.77,904.19a18.06,18.06,0,0,0,4.14,5.74c.67.68,1.42,1.39,2.28,2.12l1.62-1.9c-.79-.68-1.48-1.32-2.08-1.93a15.49,15.49,0,0,1-3.69-5.09C389.28,903.5,388.53,903.86,387.77,904.19Z" transform="translate(-310.59 -28.36)"/><path class="f200b3b6-e416-4f9d-bd10-381cf95e523e" d="M392,909.84a2.81,2.81,0,1,0,3.66-1.53A2.8,2.8,0,0,0,392,909.84Z" transform="translate(-310.59 -28.36)"/><path class="f200b3b6-e416-4f9d-bd10-381cf95e523e" d="M412.59,886.23a62.9,62.9,0,0,1,7.29,3.5l1.68-4.22a20.45,20.45,0,0,0-6.17-3.8C414.3,883.34,413.36,884.87,412.59,886.23Z" transform="translate(-310.59 -28.36)"/><path class="b3d94455-9bf7-4772-87d6-1fa6cbccb9ab" d="M400.86,87.22c-2.24,2.56-15.55,3.45-15.55,3.45-4.77-4.63-6-12.28-7.58-19.1h0c-.29-1.22-.53-2.41-.73-3.56h0c-1-6-.86-10.83.28-11.85,2.56-2.31,5,.75,5,.75s-.69-6.76,1.9-7.81c2.33-.94,5.43,4.73,5.43,4.73s-1.05-26.5,1.9-25.43c3.63,1.3,5.57,24,5.63,24.68,2-10.56,3-24.85,6.2-19.3s.14,24.92.14,24.92a5.76,5.76,0,0,1,4.29,3.24c1.23,2.85-1.53,9.84-1.53,9.84C404.55,77.42,400.86,87.22,400.86,87.22Z" transform="translate(-310.59 -28.36)"/><path class="b6cbc640-160e-4e4a-9093-70d2d451c413" d="M392.13,69.9s-5.31,4.46-1.43,13.44c0,0-6.08-6.8,1.15-15.53A1.73,1.73,0,0,1,392.13,69.9Z" transform="translate(-310.59 -28.36)"/><path class="b6cbc640-160e-4e4a-9093-70d2d451c413" d="M394.36,62.26s-4.33,4.89.05,7.43,10.64-.78,10.64-.78-3.47,4.49-8.78,3.32S389.06,66.36,394.36,62.26Z" transform="translate(-310.59 -28.36)"/><path class="b6cbc640-160e-4e4a-9093-70d2d451c413" d="M389.88,69.07c-1.91,3.21-5.54-.36-5.54-.36s0,5.35-3.66,4.27a10.27,10.27,0,0,1-2.95-1.41h0c-.29-1.22-.53-2.41-.73-3.56.06.18,1.16,3.44,4.11,3.78s2.17-5.76,2.14-6c.09.13,2.08,3,4.85,2.72s2.45-7.29,2.43-7.59C390.6,61.17,391.74,65.94,389.88,69.07Z" transform="translate(-310.59 -28.36)"/><path class="fd312b24-82f2-450f-a690-97b0eb8decfe" d="M404.57,142.31c-1.77-27.69-3.71-55-3.71-55-7.27,2-13.23,1.59-19.25-2A356.64,356.64,0,0,0,382,199.42C390.47,231,442.7,300.85,442.7,300.85c20.71-3.48,18.2-33,18.2-33-27.1-41.65-53-79.21-53.43-79.8C407.18,183.4,406.08,165.92,404.57,142.31Z" transform="translate(-310.59 -28.36)"/><path class="fd312b24-82f2-450f-a690-97b0eb8decfe" d="M417.79,524.58a238.34,238.34,0,0,0,29.7,11.58q4.11,1.29,8.29,2.42a183,183,0,0,0,45.1,6.56c25.25.36,50.84-5.28,74.67-20l-16.1-95.69,26.64-155.62-39.86-13.65-2.14-.74-3.93-1.34-1.66-.57-3.36-1.15L528,254l-42.17,5.64-2.54.33-4.32.58-2.41.33-30.17,4Z" transform="translate(-310.59 -28.36)"/><path class="f200b3b6-e416-4f9d-bd10-381cf95e523e" d="M455.78,538.58a183,183,0,0,0,45.1,6.56q-1-6.43-1.67-13.31c-.23-2.29-.41-4.6-.57-7q-.48-6.9-.65-14.15-.08-3.42-.09-6.92,0-6.92.17-14.08c.07-2.29.16-4.58.26-6.9q.3-6.94.79-14c.16-2.29.33-4.57.52-6.88q.56-7,1.28-14c.23-2.28.48-4.58.74-6.87.51-4.65,1.08-9.32,1.68-14q.45-3.44.92-6.87,1-7,2-14c.35-2.29.7-4.58,1.07-6.87q1.13-7,2.34-14c.39-2.3.8-4.6,1.21-6.88q1.27-7.08,2.6-14c.44-2.31.89-4.6,1.34-6.89.94-4.74,1.89-9.43,2.85-14q.72-3.49,1.46-6.91,1.55-7.2,3.09-14c.52-2.34,1-4.65,1.57-6.92q1.68-7.31,3.32-14.09c.56-2.36,1.12-4.68,1.68-6.94,1.23-5,2.42-9.72,3.55-14.13.62-2.42,1.23-4.75,1.81-7,1.61-6.14,3.07-11.52,4.32-16l-3.36-1.15L528,254l-42.17,5.64-2.54.33c-.75,4-1.5,8-2.22,12-.42,2.26-.82,4.53-1.22,6.8q-1.2,6.81-2.33,13.64-.57,3.41-1.11,6.81-1.11,6.84-2.14,13.65c-.34,2.27-.68,4.55-1,6.82-.67,4.56-1.33,9.1-1.95,13.64-.32,2.28-.63,4.57-.94,6.84q-.92,6.87-1.78,13.66c-.29,2.29-.57,4.58-.85,6.85q-.84,6.9-1.62,13.67-.39,3.45-.77,6.88-.78,6.92-1.47,13.69c-.24,2.31-.48,4.6-.7,6.89-.47,4.63-.9,9.21-1.31,13.71-.22,2.33-.42,4.63-.63,6.91q-.61,7-1.16,13.73-.3,3.51-.55,6.94-.54,7.05-1,13.76c-.17,2.35-.32,4.67-.47,7q-.47,7.14-.83,13.81c-.14,2.37-.26,4.7-.37,7-.25,4.84-.46,9.47-.63,13.86-.1,2.4-.18,4.74-.25,7-.17,5-.28,9.66-.35,13.92q-.06,3.72-.06,7C455.6,531.1,455.65,535.21,455.78,538.58Z" transform="translate(-310.59 -28.36)"/><path class="aac0e096-cfd4-4730-ab0c-072e3a4fc70d" d="M479.89,278.69a289.15,289.15,0,0,0,36.7,2.13q7.62,0,15.78-.3c.62-2.42,1.23-4.75,1.81-7-20.21.83-37.78.28-53.07-1.66C480.69,274.15,480.29,276.42,479.89,278.69Z" transform="translate(-310.59 -28.36)"/><path class="aac0e096-cfd4-4730-ab0c-072e3a4fc70d" d="M476.45,299.14A289.32,289.32,0,0,0,517,301.72c3.29,0,6.65-.05,10.1-.13.56-2.36,1.12-4.68,1.68-6.94-19.49.54-36.46-.22-51.26-2.32Q477,295.74,476.45,299.14Z" transform="translate(-310.59 -28.36)"/><path class="aac0e096-cfd4-4730-ab0c-072e3a4fc70d" d="M473.3,319.61a290.68,290.68,0,0,0,44.26,3c1.55,0,3.11,0,4.69,0,.52-2.34,1-4.65,1.57-6.92-18.79.28-35.19-.68-49.51-2.89C474,315.06,473.63,317.34,473.3,319.61Z" transform="translate(-310.59 -28.36)"/><path class="aac0e096-cfd4-4730-ab0c-072e3a4fc70d" d="M470.41,340.09a292.64,292.64,0,0,0,47.29,3.46q.72-3.49,1.46-6.91c-18.11.05-33.95-1.07-47.81-3.39C471,335.53,470.72,337.82,470.41,340.09Z" transform="translate(-310.59 -28.36)"/><path class="aac0e096-cfd4-4730-ab0c-072e3a4fc70d" d="M467.78,360.6a285.68,285.68,0,0,0,45.73,3.86c.44-2.31.89-4.6,1.34-6.89a279.8,279.8,0,0,1-46.22-3.82C468.34,356,468.06,358.33,467.78,360.6Z" transform="translate(-310.59 -28.36)"/><path class="aac0e096-cfd4-4730-ab0c-072e3a4fc70d" d="M465.39,381.15a280.36,280.36,0,0,0,44.31,4.18c.39-2.3.8-4.6,1.21-6.88a274.29,274.29,0,0,1-44.75-4.18Q465.77,377.72,465.39,381.15Z" transform="translate(-310.59 -28.36)"/><path class="aac0e096-cfd4-4730-ab0c-072e3a4fc70d" d="M463.22,401.73a277.77,277.77,0,0,0,43.07,4.46c.35-2.29.7-4.58,1.07-6.87a270.46,270.46,0,0,1-43.44-4.48C463.68,397.15,463.44,399.44,463.22,401.73Z" transform="translate(-310.59 -28.36)"/><path class="aac0e096-cfd4-4730-ab0c-072e3a4fc70d" d="M461.28,422.35A275,275,0,0,0,503.34,427q.45-3.44.92-6.87a268.37,268.37,0,0,1-42.35-4.73C461.69,417.77,461.49,420.07,461.28,422.35Z" transform="translate(-310.59 -28.36)"/><path class="aac0e096-cfd4-4730-ab0c-072e3a4fc70d" d="M459.57,443a273.92,273.92,0,0,0,41.35,4.88c.23-2.28.48-4.58.74-6.87a264.33,264.33,0,0,1-41.54-4.95Q459.82,439.59,459.57,443Z" transform="translate(-310.59 -28.36)"/><path class="aac0e096-cfd4-4730-ab0c-072e3a4fc70d" d="M458.1,463.73a273.66,273.66,0,0,0,41,5.06c.16-2.29.33-4.57.52-6.88a264.79,264.79,0,0,1-41.07-5.13C458.4,459.13,458.25,461.45,458.1,463.73Z" transform="translate(-310.59 -28.36)"/><path class="aac0e096-cfd4-4730-ab0c-072e3a4fc70d" d="M456.9,484.51a278.19,278.19,0,0,0,41.17,5.22c.07-2.29.16-4.58.26-6.9a268.35,268.35,0,0,1-41.06-5.29C457.13,479.91,457,482.24,456.9,484.51Z" transform="translate(-310.59 -28.36)"/><path class="aac0e096-cfd4-4730-ab0c-072e3a4fc70d" d="M456,505.37a284.3,284.3,0,0,0,42,5.36q-.08-3.42-.09-6.92a272.81,272.81,0,0,1-41.63-5.44C456.17,500.77,456.09,503.11,456,505.37Z" transform="translate(-310.59 -28.36)"/><path class="aac0e096-cfd4-4730-ab0c-072e3a4fc70d" d="M455.61,526.33a295.22,295.22,0,0,0,43.6,5.5c-.23-2.29-.41-4.6-.57-7a281.12,281.12,0,0,1-43-5.59Q455.61,523,455.61,526.33Z" transform="translate(-310.59 -28.36)"/><path class="ecc40d9d-b2e6-4492-a78e-38c35fdccdcd" d="M440.69,141.58s-10.6,7-6.8,26,11.14,21,11.14,21S456.15,146.52,440.69,141.58Z" transform="translate(-310.59 -28.36)"/><path class="b3d94455-9bf7-4772-87d6-1fa6cbccb9ab" d="M489.44,230.3l1.35,24,.61,11c13.83,10.23,36.32-3.85,36.32-3.85l2.4-35.59c-6.4-4.31-22.89-.72-32.8,2C492.65,229.19,489.44,230.3,489.44,230.3Z" transform="translate(-310.59 -28.36)"/><path class="b6cbc640-160e-4e4a-9093-70d2d451c413" d="M489.44,230.3l1.35,24c16.24-3.76,29.84-26.26,29.84-26.26l-23.31-.15C492.65,229.19,489.44,230.3,489.44,230.3Z" transform="translate(-310.59 -28.36)"/><path class="ecc40d9d-b2e6-4492-a78e-38c35fdccdcd" d="M442.83,151.25s-25.9-12.05-18.31-33.32S463.1,106.44,491,107.5c44.87,1.71,58.92,25.05,57.78,49.35s-.88,56.89-11.89,69-18.54-5-24.23-20.23S471.77,143.93,442.83,151.25Z" transform="translate(-310.59 -28.36)"/><path class="b3d94455-9bf7-4772-87d6-1fa6cbccb9ab" d="M440.49,171.92c0,.82,0,1.66.05,2.5.46,15.09,3.06,33.43,5.62,48.35a28.52,28.52,0,0,0,33.72,23.12c19-3.83,42.34-9.64,53-16.65,3.24-2.13,5.3-4.37,5.71-6.7a157.92,157.92,0,0,0,1.73-20.93c.75-24.48-1-55-1-55-22.78-28.3-86.28-17.25-95.95,3.45C441.12,154.79,440.35,162.64,440.49,171.92Z" transform="translate(-310.59 -28.36)"/><path class="a0fc58fe-3426-45f8-9b9d-494304d04e38" d="M454.52,215.76a13.06,13.06,0,0,0,.93,1.76,15.69,15.69,0,0,0,5.82,5.61c2.78,1.5,6.54,2.29,11.45,1.05a15.23,15.23,0,0,0,9-5.68,17.38,17.38,0,0,0,3-10.31,17.92,17.92,0,0,0-.26-3.21C472.74,213.85,454.52,215.76,454.52,215.76Z" transform="translate(-310.59 -28.36)"/><path class="a817d042-537e-4746-8ba2-ab30b33a488a" d="M461.27,223.13c2.78,1.5,6.54,2.29,11.45,1.05a15.23,15.23,0,0,0,9-5.68,17.89,17.89,0,0,0-12.07-.25A22.55,22.55,0,0,0,461.27,223.13Z" transform="translate(-310.59 -28.36)"/><path class="f200b3b6-e416-4f9d-bd10-381cf95e523e" d="M454.52,215.76a13.06,13.06,0,0,0,.93,1.76c13.06,1,24.87-6.25,29.27-9.33a17.92,17.92,0,0,0-.26-3.21C472.74,213.85,454.52,215.76,454.52,215.76Z" transform="translate(-310.59 -28.36)"/><path class="ecc40d9d-b2e6-4492-a78e-38c35fdccdcd" d="M478.13,185.59c0,3.18,1.42,5.76,3.17,5.76s3.16-2.58,3.16-5.76-1.42-5.76-3.16-5.76S478.13,182.41,478.13,185.59Z" transform="translate(-310.59 -28.36)"/><path class="ecc40d9d-b2e6-4492-a78e-38c35fdccdcd" d="M445.74,185.59c0,3.18,1.41,5.76,3.16,5.76s3.16-2.58,3.16-5.76-1.41-5.76-3.16-5.76S445.74,182.41,445.74,185.59Z" transform="translate(-310.59 -28.36)"/><path class="ecc40d9d-b2e6-4492-a78e-38c35fdccdcd" d="M540.43,179.18s-10.15-6.6-18.69,5.19h-6.65s.38-13.65-2.84-21.06-15.95-7.21-17.85-15.95c0,0-30,11.95-51.57,3.89s43-43.95,74.16-26.48S545.26,155.94,540.43,179.18Z" transform="translate(-310.59 -28.36)"/><path class="ecc40d9d-b2e6-4492-a78e-38c35fdccdcd" d="M495,177.61s-3-6.26-8.89-7.82a14.94,14.94,0,0,0-11.22,1,1.94,1.94,0,0,0-.87,2.39h0a2,2,0,0,0,2.65,1.08C480,172.74,487.17,170.78,495,177.61Z" transform="translate(-310.59 -28.36)"/><path class="ecc40d9d-b2e6-4492-a78e-38c35fdccdcd" d="M440.49,171.92c0,.82,0,1.66.05,2.5a15.61,15.61,0,0,1,13.58-.16,2,2,0,0,0,.83.19,2,2,0,0,0,.95-3.66,15,15,0,0,0-11.22-1A11.69,11.69,0,0,0,440.49,171.92Z" transform="translate(-310.59 -28.36)"/><path class="ecc40d9d-b2e6-4492-a78e-38c35fdccdcd" d="M532.88,229.24c3.24-2.13,5.3-4.37,5.71-6.7a157.92,157.92,0,0,0,1.73-20.93l-16.77,11.52S523.33,225.06,532.88,229.24Z" transform="translate(-310.59 -28.36)"/><path class="b3d94455-9bf7-4772-87d6-1fa6cbccb9ab" d="M521.74,184.37s10.17-12.33,18.69-5.19c9.38,7.87,2.19,34.55-16.87,33.95Z" transform="translate(-310.59 -28.36)"/><path class="b6cbc640-160e-4e4a-9093-70d2d451c413" d="M523.09,207.34a1.67,1.67,0,0,0,1.66-1.48c1.55-13.5,9.56-15.58,9.9-15.66a1.68,1.68,0,0,0-.74-3.27c-.44.09-10.65,2.55-12.49,18.54a1.67,1.67,0,0,0,1.47,1.86Z" transform="translate(-310.59 -28.36)"/><path class="b6cbc640-160e-4e4a-9093-70d2d451c413" d="M533.8,198.78a1.67,1.67,0,0,0,1.25-2.78,9.53,9.53,0,0,0-9-2.59,1.68,1.68,0,1,0,.72,3.28,6.12,6.12,0,0,1,5.74,1.55A1.69,1.69,0,0,0,533.8,198.78Z" transform="translate(-310.59 -28.36)"/><path class="b6cbc640-160e-4e4a-9093-70d2d451c413" d="M471.06,231.84A16.55,16.55,0,0,0,484.13,226a1.68,1.68,0,0,0-2.69-2c-.2.26-4.49,5.73-13.38,4.25a1.68,1.68,0,0,0-.55,3.31A21.44,21.44,0,0,0,471.06,231.84Z" transform="translate(-310.59 -28.36)"/><path class="b6cbc640-160e-4e4a-9093-70d2d451c413" d="M462.88,204.1a1.65,1.65,0,0,0,1.33-.66,1.68,1.68,0,0,0-.31-2.35l-4.48-3.41,3.88-1a1.67,1.67,0,0,0,1.23-1.36l1.71-10.68a1.68,1.68,0,1,0-3.31-.53l-1.54,9.6-6.15,1.59a1.69,1.69,0,0,0-1.22,1.3,1.66,1.66,0,0,0,.62,1.66l7.22,5.51A1.67,1.67,0,0,0,462.88,204.1Z" transform="translate(-310.59 -28.36)"/><path class="b3d94455-9bf7-4772-87d6-1fa6cbccb9ab" d="M568.76,486.17s-7.24,3.07-12,7.48-9.53,9.24-12.41,12c-3.46,3.34.76,5.1,4.74,3.25,6-2.8,7.82-5.8,7.82-5.8s-14.71,21.2-16.14,28c-1.3,6.19,7.39-5.09,15.1-14,0,0-10.64,22.94-8.31,26.56,3,4.74,15.87-23.09,15.87-23.09s-6.4,21.93-3.67,22.33c3,.44,12.33-21.2,12.33-21.2s-3.06,15.45-1.16,15.07c3.76-.76,16.82-31.64,12.69-46.4C583.64,490.35,572.3,485,568.76,486.17Z" transform="translate(-310.59 -28.36)"/><path class="fd312b24-82f2-450f-a690-97b0eb8decfe" d="M578.29,436.68c-6.06,27.08-11,49.86-11,49.86,3.59,6.1,10.17,7.9,16.79,9.65,20-42.48,28.43-79.09,32-108,.66-32.7-29.92-114.38-29.92-114.38-20.86-2.46-26.71,26.58-26.71,26.58,14.35,47.57,28.72,90.89,29,91.57C587.3,396.5,583.45,413.59,578.29,436.68Z" transform="translate(-310.59 -28.36)"/></svg>