<svg id="f8f9e523-ff32-4b91-95f0-1f7d5a61ba4b" data-name="Capa 8" xmlns="http://www.w3.org/2000/svg" viewBox="0 0 514.25 795.59"><defs><style>.e508b153-7eb8-4766-a586-751d50ca1d28{fill:#bf3718;opacity:0.5;}.e5ecd314-ba9b-44e7-a6fe-40f79fa9ad78{fill:#fff;}</style></defs><circle class="e508b153-7eb8-4766-a586-751d50ca1d28" cx="187.15" cy="409.51" r="22.42"/><circle class="e508b153-7eb8-4766-a586-751d50ca1d28" cx="358.42" cy="409.51" r="22.42"/><path class="e5ecd314-ba9b-44e7-a6fe-40f79fa9ad78" d="M659,354.86c-5.06,26.34-9.12,52.8-11.55,79.51-2.88,31.57,1.49,70.86-9.56,100.73-11.37,30.76-25.84,36.28-54.42,39-19.32,1.82-38.78,2.3-58.17,2.3-36.87,0-95.38,7-111.06-35-11.32-30.37-7.93-68.41-10.56-100.46a804.07,804.07,0,0,0-12.09-86c-2.07-10.77-18.52-6.21-16.46,4.54,8.53,44.3,11.32,88.44,14.9,133.27,1.95,24.35,1.76,60.11,18.88,79.4,24.2,27.26,84.63,21.37,116.39,21.37,32,0,86.42,5.24,112.63-18.28,19.47-17.47,19.91-51.64,22.14-76,4.3-47,6.44-93.22,15.39-139.73,2.06-10.73-14.38-15.33-16.46-4.54Z" transform="translate(-257.43 -87.64)"/><path class="e5ecd314-ba9b-44e7-a6fe-40f79fa9ad78" d="M398.15,431.79c-20.3-46.16-76.3-9-81.23,27.54-6.55,48.48,42.27,70.73,82.45,74.29,10.93,1,10.87-16.1,0-17.07-22.88-2-49.22-8.77-61.15-30.62C332,474.53,332,460,337.8,448.39c8.39-16.86,35.54-30.9,45.61-8,4.42,10,19.13,1.35,14.74-8.62Z" transform="translate(-257.43 -87.64)"/><path class="e5ecd314-ba9b-44e7-a6fe-40f79fa9ad78" d="M402.44,476.79a54.57,54.57,0,0,0-43.25-29.7c-17.46-1.61-37.16,6.11-40.28,25.12-1.77,10.74,14.68,15.36,16.45,4.53,2.23-13.53,18.39-14.48,29.05-11.38s18.34,10.39,23.29,20.05,19.75,1.15,14.74-8.62Z" transform="translate(-257.43 -87.64)"/><path class="e5ecd314-ba9b-44e7-a6fe-40f79fa9ad78" d="M377.62,453.72c-16,3.23-19.83,19.92-20.87,33.8-.82,11,16.26,10.9,17.07,0,.47-6.22.75-15.81,8.34-17.34,10.75-2.18,6.2-18.63-4.54-16.46Z" transform="translate(-257.43 -87.64)"/><path class="e5ecd314-ba9b-44e7-a6fe-40f79fa9ad78" d="M667.19,440.41c9.42-21.42,34.26-10.23,44.08,5.33,7.42,11.77,7.74,28.06,1.12,40.19-11.92,21.82-38.27,28.59-61.15,30.62-10.85,1-11,18,0,17.07,40.07-3.55,89.13-25.83,82.45-74.29-5-36.45-60.89-73.8-81.23-27.54-4.38,10,10.32,18.66,14.73,8.62Z" transform="translate(-257.43 -87.64)"/><path class="e5ecd314-ba9b-44e7-a6fe-40f79fa9ad78" d="M662.91,485.41c4.94-9.64,12.71-17,23.28-20.05,10.75-3.06,26.82-2.2,29,11.38,1.78,10.82,18.23,6.23,16.46-4.53-3.12-19-22.82-26.73-40.29-25.12a54.56,54.56,0,0,0-43.24,29.7c-5,9.76,9.72,18.4,14.74,8.62Z" transform="translate(-257.43 -87.64)"/><path class="e5ecd314-ba9b-44e7-a6fe-40f79fa9ad78" d="M668.45,470.18c7.58,1.53,7.87,11.12,8.34,17.34.81,10.88,17.88,11,17.06,0-1-13.88-4.9-30.57-20.86-33.8-10.73-2.17-15.31,14.28-4.54,16.46Z" transform="translate(-257.43 -87.64)"/><path class="e5ecd314-ba9b-44e7-a6fe-40f79fa9ad78" d="M547.88,373.44c3.73,11.54,7.51,23.17,9.64,35.14,1.14,6.41,2.3,13.18,2.12,19.71-.19,7.22-5.24,36.51-22.39,22-1.75-1.48-4.3-2.66-6.64-1.75-8.36,3.25-15.55,4.35-24.58,2.73-8.6-1.54-12.28,11.62-3.63,13.17,6.67,1.2,13.16,2,19.93.81,9.71-1.73,5.69-1.66,13.42,0,10.21,2.24,18.62,1.48,26.58-6.18,22.62-21.77,6.66-64.69-1.28-89.26-2.69-8.32-15.88-4.76-13.17,3.63Z" transform="translate(-257.43 -87.64)"/><path class="e5ecd314-ba9b-44e7-a6fe-40f79fa9ad78" d="M506,526.3a218.93,218.93,0,0,0,58-6.59c8.52-2.13,4.91-15.3-3.63-13.16a204.59,204.59,0,0,1-54.32,6.1c-8.79-.18-8.79,13.48,0,13.65Z" transform="translate(-257.43 -87.64)"/><circle class="e5ecd314-ba9b-44e7-a6fe-40f79fa9ad78" cx="208.58" cy="319.03" r="13.02"/><circle class="e5ecd314-ba9b-44e7-a6fe-40f79fa9ad78" cx="330.69" cy="319.03" r="13.02"/><path class="e5ecd314-ba9b-44e7-a6fe-40f79fa9ad78" d="M433.5,363.43a52.12,52.12,0,0,1,54.76-6c7.9,3.75,14.83-8,6.89-11.79-24-11.42-50.5-8.27-71.31,8.17-6.89,5.45,2.83,15.05,9.66,9.66Z" transform="translate(-257.43 -87.64)"/><path class="e5ecd314-ba9b-44e7-a6fe-40f79fa9ad78" d="M634.34,353.77C613.53,337.34,587,334.18,563,345.6c-7.93,3.77-1,15.55,6.9,11.79a52.1,52.1,0,0,1,54.76,6c6.83,5.39,16.55-4.21,9.66-9.66Z" transform="translate(-257.43 -87.64)"/><path class="e5ecd314-ba9b-44e7-a6fe-40f79fa9ad78" d="M372,369.46a157.85,157.85,0,0,0,28.36-49l-14.26,3.77c30.38,33.25,79.19-11.62,96.54-38.09l-15.6-2c16.15,40.93,87.56,44.49,108.56,5.9H560.81c20.31,31.59,52,45.87,89,39.91l-9.63-12.53c-10.87,23.65,17.11,44.31,35.89,53.93,9.76,5,18.4-9.72,8.61-14.74-7.09-3.63-34.79-19.65-29.77-30.58,3.26-7.09-2.06-13.75-9.63-12.53-28.91,4.64-54.17-7.83-69.76-32.08-3.34-5.19-11.55-5.85-14.74,0-13.19,24.26-66.88,24.74-77.36-1.81-2.69-6.82-11.34-8.54-15.6-2-9.68,14.77-48.49,57.88-69.73,34.63-4.66-5.1-12.19-1.9-14.27,3.76-6.1,16.65-12.56,27.88-24,41.45-7,8.35,5,20.49,12.07,12.07Z" transform="translate(-257.43 -87.64)"/><path class="e5ecd314-ba9b-44e7-a6fe-40f79fa9ad78" d="M504.71,122.87c-25.45-46.17-70.88-16.34-104.54-.31-22.82,10.86-47.33,15.52-65.7,34.48-20,20.58-17.12,49.15-34.17,72.22-11.79,16-24.49,31-27.7,51.47-1.56,9.92.4,15.56,2.88,24.95,5.69,21.52,4.44,33-7.06,51.71-29.79,48.34,6,71,47,90.73,9.85,4.75,18.52-10,8.62-14.73-26.35-12.7-62.43-32.32-40.91-67.39,6.3-10.27,15.64-18.95,18.45-31.13,1.89-8.17.23-14.09-1.34-22-2.41-12.14-10.49-25.05-8.14-39.11,1.93-11.57,13.33-24.11,20.24-32.46,6.09-7.35,13.29-13.92,17.42-22.68,10-21.15,7.19-44.91,29.63-59.89,15.31-10.23,33.18-12.47,49.34-20.35C432,127.08,468.91,93.28,490,131.48c5.31,9.62,20,1,14.74-8.61Z" transform="translate(-257.43 -87.64)"/><path class="e5ecd314-ba9b-44e7-a6fe-40f79fa9ad78" d="M502.79,132.67c23.21-15.16,51-34.45,79.76-25.22,18.56,6,22.53,18.84,30.5,33.79,2,3.78,3.72,9,7,11.94,9.06,8.2,26.86,7.92,38,11C686.76,172,704.39,189.49,710.1,219c3.5,18-3.89,37.64.69,55,2.73,10.35,9.16,15.61,16,23.62,21.19,24.83,37.68,58.25,16.4,88.51-9.73,13.84-24.51,24.57-34.52,39-6.26,9.06,8.53,17.6,14.74,8.62,13.32-19.25,38.61-34.5,45.88-57.25,5.87-18.38,0-39.81-7.57-56.83-5.88-13.24-14.55-22.68-22.86-34.15-10.65-14.71-11-22.85-10.31-40.32.9-21.69-2.54-44.31-14.2-63-9.93-15.89-24.69-25.77-42.22-31.75-15-5.11-29.3-3.77-39.39-15.78-6.89-8.2-8.39-18.69-15.45-26.85C583,68.23,529,95.2,494.17,117.93c-9.16,6-.61,20.77,8.62,14.74Z" transform="translate(-257.43 -87.64)"/><path class="e5ecd314-ba9b-44e7-a6fe-40f79fa9ad78" d="M574.06,591.17c1.23,26-3.37,60.8,8.41,84.83,15.08,30.74,58.49,55.91,84,77.36,16.26,13.67,34.8,24,35.46,47,.81,28.5-12,45.92-37.65,57.75-47.15,21.79-86.46-7.5-132.42-14.26-31.15-4.58-61.55,3.82-92.08,8.66-23.72,3.76-56.16,8.12-77-7.33-46.7-34.67-1.79-74.65,24.06-93.25,30.49-22,66.29-42.67,92.16-70.22,24-25.53,14.75-56.19,17.17-88.13.82-11-16.25-10.9-17.07,0-1,13.79,1.29,27.52.26,41.17-2,26-16.41,39.35-34.59,53.65-21.63,17-44.11,32.86-66.55,48.79-27.2,19.31-54.87,43.68-51,80.75,10.13,96.23,158.51,32.75,211.57,44.58,42.47,9.47,77.54,30.2,121.83,15.68,27-8.84,52.44-27.71,57.67-56.9,2.17-12.09,3.69-35.5-2.13-46.68-9.34-18-37.48-33.13-52.8-46.11-18.58-15.73-40.64-30.6-56.76-48.92-19.21-21.84-14.23-61-15.53-88.44-.52-10.93-17.59-11-17.07,0Z" transform="translate(-257.43 -87.64)"/><path class="e5ecd314-ba9b-44e7-a6fe-40f79fa9ad78" d="M708,776.91q-42.3-34.95-83.82-70.8L534.31,771Q486.73,737.67,441,701.8q-24.78,19-50.19,37c-19.36,13.7-38.87,24.79-49.53,47.46-7.66,16.29-8.4,36.65,1.57,51.64,6,9,15.3,15.41,25.29,19.57,50.29,20.93,107.49-13,161.43-5.39,27.17,3.81,52,18,79.12,22.18,29.85,4.57,61.72-4.06,84.37-24S711.6,806.89,708,776.91Z" transform="translate(-257.43 -87.64)"/></svg>