<svg id="ae15a2d0-1aa0-4364-8605-c552f8810a93" data-name="Capa 5" xmlns="http://www.w3.org/2000/svg" viewBox="0 0 654.26 755.41"><defs><style>.ba6decdc-533e-4a7d-a463-4da4fe14273d{fill:#bf3718;opacity:0.5;}.b60954db-bd7f-4924-a44d-1334eda5e191{fill:#fff;}</style></defs><circle class="ba6decdc-533e-4a7d-a463-4da4fe14273d" cx="218.98" cy="323.82" r="35.55"/><circle class="ba6decdc-533e-4a7d-a463-4da4fe14273d" cx="510.3" cy="315.56" r="35.55"/><path class="b60954db-bd7f-4924-a44d-1334eda5e191" d="M208.12,442.68c13.06-7.79,28.52-15.71,44.34-12.73S277.35,446.4,285,459.39s27.81,1.19,20.15-11.78c-10.87-18.42-24.59-35.38-46.51-40.16-22.07-4.81-43.69,4-62.32,15.08-12.88,7.69-1.16,27.87,11.78,20.15Z" transform="translate(-170.44 -127.94)"/><path class="b60954db-bd7f-4924-a44d-1334eda5e191" d="M265.17,412.18c-23.47,6.52-40.52,30-37.61,54.55.75,6.3,4.83,11.59,11.67,11.67,5.73.05,12.41-5.42,11.67-11.67-1.71-14.43,6.11-28.06,20.47-32.05s8.31-26.54-6.2-22.5Z" transform="translate(-170.44 -127.94)"/><path class="b60954db-bd7f-4924-a44d-1334eda5e191" d="M294.17,396.87c5.9,10.57,16,16,27.71,9.19,19.66-11.35,18.45-52.48,18.78-71.23.5-27.83-7.24-54-8.89-81.45-.93-15.34.58-31.48-5.5-46-12.36-29.59-49.16-30.53-74.65-16.44-28.48,15.75-24,53.67-15.76,80.43L253,258.16c-59.1-29.4-81.92,87.88-26.06,113.42,13.56,6.19,25.43-13.91,11.78-20.15-40.23-18.39-11.59-80.13,2.5-73.12,8.63,4.29,20.33-2.87,17.14-13.18-6-19.41-12.51-45.41,12.38-56.43,25.29-11.18,35.68,6,37.37,28.22.85,11.2,0,22.37,1.51,33.54,2.67,19.18,7.61,37.63,7.83,57.22.19,16.76-10.53,44.15-3.13,57.41-7.32-13.11-27.48-1.36-20.15,11.78Z" transform="translate(-170.44 -127.94)"/><path class="b60954db-bd7f-4924-a44d-1334eda5e191" d="M301.74,199c64.84-35.14,137-52.51,210.85-46.78,66.26,5.15,159.06,24.1,183.94,93.7,16,44.85,13.62,94.89,16.82,142,3.44,50.59,18.7,138.33-23.73,174.68-42.12,36.07-131.5,33.17-183.19,34.5-33,.85-66.47.69-99.27-3.13-15.08-1.75-30.76-4.24-45.19-9.36-31.71-11.26-39-29.39-42.41-62.36-3.14-30.07-3.44-55.44-38.12-38.17-25.65,12.77-45.58,17.29-68.25-4.86-12.49-12.21-20.34-29.59-19.82-47.2,1.73-58.69,73.95-87.18,102.54-29.31,6.65,13.46,26.78,1.65,20.15-11.78C262.32,282.17,121.34,398,188,485.71c13.3,17.5,32.67,30,54.35,33.93,11.18,2,52.43-11.26,54-10,4.55,3.65-.5,32.78,1.26,40.68,2.12,9.55,5.27,17.91,11.08,25.88,16.31,22.35,45.05,31.82,71,37.13,75.8,15.53,158.74,8.11,234.7-2.11,46.69-6.29,96.48-17.56,115.48-66,20.52-52.36,9.86-119.39,5.67-174-4.05-52.9-1.78-107.4-26.85-155.94-31.18-60.37-121.1-78.33-182.75-85.06-82.18-9-163.59,9.52-235.91,48.72C276.75,186,288.52,206.2,301.74,199Z" transform="translate(-170.44 -127.94)"/><path class="b60954db-bd7f-4924-a44d-1334eda5e191" d="M733.54,372.62c30.57-26.39,69.09-1.32,67.79,36.09-1,29-25.61,68.7-58.91,48.1-12.81-7.92-24.54,12.26-11.78,20.15,51.76,32,96.46-26.69,94-75.53-2.9-56.51-65.43-81.67-107.56-45.31-11.39,9.83,5.18,26.27,16.5,16.5Z" transform="translate(-170.44 -127.94)"/><path class="b60954db-bd7f-4924-a44d-1334eda5e191" d="M739,431.09c8.62-17.33,23-30.08,41.57-35.77,14.32-4.37,8.22-26.91-6.2-22.5a91.38,91.38,0,0,0-55.52,46.49c-6.67,13.41,13.45,25.24,20.15,11.78Z" transform="translate(-170.44 -127.94)"/><path class="b60954db-bd7f-4924-a44d-1334eda5e191" d="M750.51,414.49l.55-.66-5.15,3c-.46.19-6.13-.37-6.24-1.45.05.49,2.29,2.29,2.76,2.78,1.63,1.69,3.2,3.44,4.72,5.23a95.93,95.93,0,0,1,7.44,10.25c3.41,5.3,10.37,7.46,16,4.19,5.27-3.09,7.6-10.64,4.18-16a132.55,132.55,0,0,0-15.81-20.2c-6.26-6.52-17.5-12.59-24.92-3.67-4,4.84-4.74,11.76,0,16.5,4.15,4.14,12.45,4.86,16.5,0Z" transform="translate(-170.44 -127.94)"/><path class="b60954db-bd7f-4924-a44d-1334eda5e191" d="M718.16,245.36c11.61-20.33,42.29-19.41,45.5,3.94,1.48,10.78-4.12,20.61-1.53,31.9,6,26.16,50.4,42.87,18.18,71.61-11.23,10,5.32,26.47,16.5,16.5C812.9,355,820,332.91,812.56,312.05c-4.73-13.33-15.3-17.5-23.13-28-9.78-13.13-1.18-29.31-1.7-44-1.78-49.93-70.86-39.54-89.72-6.51-7.46,13.07,12.7,24.84,20.15,11.78Z" transform="translate(-170.44 -127.94)"/><path class="b60954db-bd7f-4924-a44d-1334eda5e191" d="M496.56,433c30.58,4.45,98.91,12.29,116.94-22.36,7.06-13.58.79-29.31-10.15-38.53-6.83-5.75-15.5-8.94-23.82-11.83-7.74-2.7-38.41-5.66-40.78-14-4.08-14.43-26.6-8.29-22.5,6.2,7.13,25.19,36.53,22.86,57.08,30.31a68.22,68.22,0,0,1,11.19,4.64Q594.6,404.4,581,406.54c-6.93,4.63-18.8,4.8-26.63,5.55a216.13,216.13,0,0,1-51.64-1.56c-14.69-2.14-21,20.34-6.21,22.5Z" transform="translate(-170.44 -127.94)"/><path class="b60954db-bd7f-4924-a44d-1334eda5e191" d="M434.46,495.28C502.64,507,570.42,516,635,485.48c13.58-6.41,1.75-26.53-11.77-20.15-58.4,27.54-121.28,18-182.6,7.45-14.69-2.53-21,20-6.2,22.5Z" transform="translate(-170.44 -127.94)"/><path class="b60954db-bd7f-4924-a44d-1334eda5e191" d="M434.55,458.69l-20.84,32.36c-8.16,12.67,12,24.38,20.15,11.78l20.84-32.36c8.15-12.66-12-24.38-20.15-11.78Z" transform="translate(-170.44 -127.94)"/><path class="b60954db-bd7f-4924-a44d-1334eda5e191" d="M375.58,287.23c30.75-14.42,66.49-16.32,93.15,7.4,11.19,9.95,27.75-6.49,16.5-16.5-35-31.17-80.63-30.19-121.43-11.05-13.59,6.37-1.75,26.5,11.78,20.15Z" transform="translate(-170.44 -127.94)"/><path class="b60954db-bd7f-4924-a44d-1334eda5e191" d="M672.61,267.08C631.81,248,586.22,247,551.18,278.13c-11.25,10,5.3,26.46,16.5,16.5,26.65-23.72,62.38-21.83,93.15-7.4,13.52,6.34,25.38-13.77,11.78-20.15Z" transform="translate(-170.44 -127.94)"/><circle class="b60954db-bd7f-4924-a44d-1334eda5e191" cx="266.67" cy="233.12" r="14.34"/><circle class="b60954db-bd7f-4924-a44d-1334eda5e191" cx="428.29" cy="233.12" r="14.34"/><path class="b60954db-bd7f-4924-a44d-1334eda5e191" d="M611.61,469.68c7.83,7.84,12.15,17.21,13.83,28.12.95,6.23,8.78,9.67,14.35,8.14,6.66-1.83,9.11-8.1,8.15-14.35a69.49,69.49,0,0,0-19.83-38.41c-10.62-10.65-27.13,5.85-16.5,16.5Z" transform="translate(-170.44 -127.94)"/><path class="b60954db-bd7f-4924-a44d-1334eda5e191" d="M437.45,616a407,407,0,0,0,23.77,65.93c6.29,13.49,15.57,20.1,5.76,34.15-8.8,12.6-24.39,23.67-36.49,32.52l16,4.19c-19.5-44.06-38.14-89.1-28-138.14,3-14.65-19.45-20.92-22.5-6.2-11.54,55.64,8.08,105.87,30.32,156.12,2.37,5.37,11.28,7.6,16,4.18,17.92-13.11,54.57-36.44,55.25-61.44.31-11.2-9.4-23-14-32.47C473.43,653.92,466,632.17,460,609.79c-3.92-14.48-26.44-8.33-22.51,6.21Z" transform="translate(-170.44 -127.94)"/><path class="b60954db-bd7f-4924-a44d-1334eda5e191" d="M598.36,614.65c10.15,49-8.51,94.14-28,138.14l16-4.19c-12.1-8.85-27.69-19.92-36.49-32.52-9.81-14.05-.52-20.66,5.77-34.15A407,407,0,0,0,579.39,616c3.92-14.52-18.58-20.71-22.5-6.21a378.75,378.75,0,0,1-23.6,65.05c-4.77,10-13.87,20.89-14,32.47-.2,24.74,37.79,48.66,55.25,61.44,4.71,3.44,13.6,1.17,16-4.18,22.25-50.29,41.85-100.49,30.32-156.12-3.05-14.69-25.55-8.48-22.5,6.2Z" transform="translate(-170.44 -127.94)"/><path class="b60954db-bd7f-4924-a44d-1334eda5e191" d="M482.34,725c16,9.78,34,7.28,51.47,3.5,14.67-3.18,8.47-25.68-6.2-22.5-11.2,2.42-23.11,5.18-33.49-1.15C481.26,697,469.53,717.21,482.34,725Z" transform="translate(-170.44 -127.94)"/><path class="b60954db-bd7f-4924-a44d-1334eda5e191" d="M661.51,599.93q45.51,85.22,92,169.91l4.19-16c-117.49,68.81-250.79,137.47-390,95.37a399.82,399.82,0,0,1-70.22-28.8c-10.79-5.69-25-12.17-33-21.61-14.82-17.59-7.32-31.81,1.25-50.09,24.63-52.46,60.59-102.27,101-143.32,10.55-10.72-5.94-27.23-16.5-16.5-44.79,45.52-98.09,110.49-115.09,173.72-14,52.15,41.64,75.21,81.32,92.19,160.72,68.8,312.21,1.69,453.07-80.81a11.89,11.89,0,0,0,4.19-16q-46.67-84.59-92-169.91c-7.08-13.25-27.23-1.48-20.15,11.78Z" transform="translate(-170.44 -127.94)"/></svg>