<svg id="ec43c083-ad43-4429-9225-33f601713ae4" data-name="Capa 6" xmlns="http://www.w3.org/2000/svg" viewBox="0 0 531.48 829.77"><defs><style>.ef031d7c-ac44-488f-9b60-1d8b74858241{fill:#bf3718;opacity:0.5;}.acc29534-8339-477a-b70a-30dafe8cfaef{fill:#fff;}</style></defs><circle class="ef031d7c-ac44-488f-9b60-1d8b74858241" cx="168.11" cy="453.31" r="23.87"/><circle class="ef031d7c-ac44-488f-9b60-1d8b74858241" cx="350.43" cy="453.31" r="23.87"/><path class="acc29534-8339-477a-b70a-30dafe8cfaef" d="M619.6,433c-1.32,23-1.93,45.89-2.4,68.9-.31,15.64-.94,31.41-2.23,47-3.65,44.15-28.48,65.2-70,74.43-46.18,10.25-94.14,11-139.22-6.05C340.5,592.7,354.55,491.39,351.09,433c-.69-11.62-18.86-11.7-18.17,0,2.42,40.71,3.52,81.73,7.34,122.33,2.37,25.16,8.34,45.59,28.32,62,20.64,17,47.33,22.37,72.93,26.78,13.67,2.35,31.08,8.83,45,8.83s31.29-6.48,45-8.83c54.29-9.35,95.79-29.59,101.24-88.79,3.74-40.61,2.76-81.64,5.1-122.33.68-11.69-17.49-11.65-18.17,0Z" transform="translate(-227.64 -91.05)"/><path class="acc29534-8339-477a-b70a-30dafe8cfaef" d="M350.86,455.85c-10.25-16-28.25-37-49.79-30.8-23.16,6.63-30,35.91-32.18,56.37-2.64,25.12.06,53.05,21.92,69.21,18,13.28,40.23,14,60,4.89,10.61-4.87,1.39-20.54-9.17-15.68C307.08,555.72,285.54,524,286.17,493c.27-12.82,2-28.19,8.58-39.52,12.79-22,31.89-1.75,40.42,11.54,6.3,9.81,22,.71,15.69-9.17Z" transform="translate(-227.64 -91.05)"/><path class="acc29534-8339-477a-b70a-30dafe8cfaef" d="M287.58,508.12c8.44-18.57,36.43-5.16,44.3,6.62,6.46,9.68,22.21.59,15.69-9.17-14.87-22.26-61.06-38.79-75.68-6.62-4.8,10.57,10.86,19.81,15.69,9.17Z" transform="translate(-227.64 -91.05)"/><path class="acc29534-8339-477a-b70a-30dafe8cfaef" d="M639.77,465c8.22-12.8,23.11-29.56,37.62-15.24,9.62,9.51,11.12,30.68,11.38,43.22.63,31-21.1,62.64-55.5,46.84-10.55-4.85-19.79,10.8-9.17,15.68,19.41,8.92,41.23,8.47,59.11-4.18,22.59-16,25.52-44.43,22.85-69.92C703.91,461,697.37,433,675,425.51c-21.84-7.26-40.43,14.07-50.88,30.34-6.34,9.87,9.38,19,15.69,9.17Z" transform="translate(-227.64 -91.05)"/><path class="acc29534-8339-477a-b70a-30dafe8cfaef" d="M703.05,499c-14.62-32.16-60.81-15.63-75.68,6.62-6.51,9.75,9.22,18.86,15.69,9.17,7.91-11.84,35.85-25.21,44.3-6.62,4.83,10.63,20.49,1.41,15.69-9.17Z" transform="translate(-227.64 -91.05)"/><path class="acc29534-8339-477a-b70a-30dafe8cfaef" d="M467.16,430.88,436.7,468.77c-6.3,7.83-15.74,16.77-17.32,27.2-3.28,21.75,29.09,38.45,44.78,45.76,10.53,4.91,19.77-10.75,9.17-15.69a121.33,121.33,0,0,1-21.25-12.12C440,505,435,500.07,445.19,487c11.44-14.56,23.22-28.87,34.82-43.3,7.26-9-5.52-22-12.85-12.85Z" transform="translate(-227.64 -91.05)"/><path class="acc29534-8339-477a-b70a-30dafe8cfaef" d="M467.18,587.33a156.11,156.11,0,0,0,55.33-33.44c8.57-8-4.3-20.83-12.84-12.85a134.06,134.06,0,0,1-47.32,28.77c-11,3.85-6.25,21.41,4.83,17.52Z" transform="translate(-227.64 -91.05)"/><circle class="acc29534-8339-477a-b70a-30dafe8cfaef" cx="320.88" cy="365.2" r="14.68"/><circle class="acc29534-8339-477a-b70a-30dafe8cfaef" cx="193.14" cy="365.2" r="14.68"/><path class="acc29534-8339-477a-b70a-30dafe8cfaef" d="M507.9,268c-33.32,2.5-49.75,29.91-60.19,59.19-7.38,20.7-11,44-23.16,62.7-13.91,21.37-60.71,47-86.29,27.41l1.84,14.27c14.46-16.81,17.37-34.8,15.06-56.69-1.45-13.6-5.9-27-6.39-40.72-1.37-38.34,33.41-55,66.25-54.85,11.69.05,11.71-18.12,0-18.17-29.32-.13-63.55,10.13-78.08,38.21-19.45,37.59,19.1,85.92-9.69,119.37-4.17,4.85-3,10.55,1.84,14.27,25.3,19.39,73.23,5.16,95.38-14.31,35.5-31.19,30.92-128.56,83.43-132.51,11.58-.88,11.68-19.05,0-18.17Z" transform="translate(-227.64 -91.05)"/><path class="acc29534-8339-477a-b70a-30dafe8cfaef" d="M505.94,285.73c89.23,8.56,31.81,102,77.82,143.84,26.22,23.85,78.92,15.84,97.39-13.66,6.22-9.94-9.49-19.07-15.69-9.17-14.17,22.65-60.12,25-75.47,2.13-7.39-11-7.11-26.7-7.48-39.22-.52-18.15.89-35.88-6.19-53.14-12.08-29.48-39.67-46-70.38-48.95-11.63-1.11-11.56,17.07,0,18.17Z" transform="translate(-227.64 -91.05)"/><path class="acc29534-8339-477a-b70a-30dafe8cfaef" d="M503.94,170.9c-5.23-16.89-16.91-32-32.84-39.8-31.16-15.33-118.79,17.56-124-31.08-1-9.34-15.63-13.3-17.85-2.41-6.48,31.82-13.27,68.53,5.55,97.78,14.28,22.18,38.13,31.72,63.52,25.53,11.35-2.77,6.54-20.29-4.83-17.52-61.2,14.93-53.66-66.88-46.72-101L328.9,100c9.51,88.17,135.28,3.86,157.52,75.71,3.44,11.13,21,6.38,17.52-4.83Z" transform="translate(-227.64 -91.05)"/><path class="acc29534-8339-477a-b70a-30dafe8cfaef" d="M335.4,181.59c-23.29,11.79-41.83,29.94-51.72,54.49a105.65,105.65,0,0,0-7.36,41.41c.34,26.24,6.77,26.48-13,55.76-4.06,6-9.93,11.16-14.2,17C218.67,392.2,216.35,457,270.19,480.48c10.61,4.64,19.87-11,9.17-15.69-35.16-15.36-41.67-53.52-26.37-86.13,9.26-19.73,28.31-32.52,37.41-51.84,8.62-18.31,3.6-34.78,4.13-54.33.91-33.87,20.63-60.32,50-75.21,10.44-5.28,1.25-21-9.17-15.69Z" transform="translate(-227.64 -91.05)"/><path class="acc29534-8339-477a-b70a-30dafe8cfaef" d="M493.71,157.66c26.94-18.84,61.72-42.46,96.41-30.66,29.38,10,35.79,42.37,57.39,60.35,14.73,12.27,33.07,16.91,51.86,18.32,6.24.46,28.46-3.57,31.56-.72,19.12,17.56-12.35,53.88-26.32,62.47-9.94,6.11-.83,21.84,9.17,15.69,24.35-15,42-41.89,37.89-71.65C746.68,175,719,191.31,690.34,186c-48.27-8.88-53.65-66.5-100.83-77.77-38.9-9.28-74.43,12.34-105,33.7-9.51,6.66-.44,22.42,9.17,15.69Z" transform="translate(-227.64 -91.05)"/><path class="acc29534-8339-477a-b70a-30dafe8cfaef" d="M670.77,266.78c38.32,14.83,40.24,44,38.23,79.37-.59,10.23-.13,17.85,3.45,27.35,5.66,15,18.7,25.65,25,40.24,18.1,41.79-21.52,68.7-51.09,87.45-9.85,6.25-.74,22,9.17,15.69C744,486.13,781.58,444,743.48,389c-21.44-31-6.25-62.06-19.07-94.25-9-22.54-26.77-36.93-48.81-45.46C664.69,245,660,262.6,670.77,266.78Z" transform="translate(-227.64 -91.05)"/><path class="acc29534-8339-477a-b70a-30dafe8cfaef" d="M517.58,401c16.34-12.86,38.69-14,56.68-4,10.24,5.68,19.41-10,9.17-15.68-25.73-14.26-55.76-11.18-78.69,6.87-9.19,7.22,3.75,20,12.84,12.85Z" transform="translate(-227.64 -91.05)"/><path class="acc29534-8339-477a-b70a-30dafe8cfaef" d="M409.59,633.45c2.05,38.12,5.1,66.74-25.77,94.88-24.57,22.41-50,38.92-77,57.33-28.21,19.23-19.84,45.16-.14,70.18,59.08,75.08,192.69,76.35,274.56,47.55,11-3.85,6.24-21.41-4.83-17.52C527.05,903.22,474,905.24,422.62,896.18c-31.49-5.56-133.5-38.87-111.21-85.66,7.48-15.69,33-24.2,47.22-35.36,17.46-13.73,33.71-29.34,49.9-44.54,29.32-27.53,21.25-59.62,19.23-97.17-.62-11.63-18.8-11.71-18.17,0Z" transform="translate(-227.64 -91.05)"/><path class="acc29534-8339-477a-b70a-30dafe8cfaef" d="M380.55,903.39c81.92,28.82,215.47,27.54,274.56-47.55,17.3-22,28.72-48.53,4-67.88-10.06-7.87-24-12-34.72-19.46-15.17-10.56-28.31-23.29-41.82-35.78-16.63-15.38-29.2-22.87-33-49.53-2.25-15.59,1.82-34,2.66-49.74.63-11.69-17.54-11.65-18.17,0-1.85,34.46-10.14,67,15.26,93.66,16.22,17,35.41,33.5,53.88,48,14.35,11.3,39.7,19.59,47.21,35.36,21.4,44.9-75.78,78.75-105.83,84.61-52.91,10.33-108.13,8.68-159.13-9.26-11.05-3.88-15.81,13.66-4.83,17.52Z" transform="translate(-227.64 -91.05)"/><path class="acc29534-8339-477a-b70a-30dafe8cfaef" d="M480.88,910.4c23.79.3,47.54-1.84,70.47-7.39-10.42,2.2-20.94,3.83-31.32,5C507.06,909.42,494,910.23,480.88,910.4Z" transform="translate(-227.64 -91.05)"/><path class="acc29534-8339-477a-b70a-30dafe8cfaef" d="M410.41,903c22.93,5.55,46.68,7.69,70.47,7.39-13.09-.17-26.19-1-39.15-2.41C431.34,906.84,420.83,905.21,410.41,903Z" transform="translate(-227.64 -91.05)"/><path class="acc29534-8339-477a-b70a-30dafe8cfaef" d="M664.14,805.64c-3.47-9.77-14.16-11.73-22.59-16a180.69,180.69,0,0,1-19.71-11.83c-22,26-48.77,47.57-80.1,60.58C490.81,859.48,427,854,386.92,816.12c-14.15-13.41-25-30.16-36.84-45.78a195.49,195.49,0,0,1-29.87,19.25c-8.43,4.32-19.12,6.28-22.59,16-4.35,12.23,5.51,30,12.19,39.56,22.79,32.62,60.92,49.46,100.6,57.81A217.1,217.1,0,0,1,383,894.63,217.1,217.1,0,0,0,410.41,903c10.42,2.2,20.93,3.83,31.32,5,13,1.43,26.06,2.24,39.15,2.41,13.09-.17,26.18-1,39.15-2.41,10.38-1.15,20.9-2.78,31.32-5a217.46,217.46,0,0,0,27.44-8.38A217.46,217.46,0,0,1,551.35,903C591,894.66,629.16,877.82,652,845.2,658.62,835.65,668.49,817.87,664.14,805.64Z" transform="translate(-227.64 -91.05)"/></svg>