<svg id="a35bcf0f-fc2e-46c8-8e3a-69a3eb910910" data-name="Capa 7" xmlns="http://www.w3.org/2000/svg" viewBox="0 0 519.31 951.54"><defs><style>.be769e0b-c29f-4984-9568-aa162b0903f9{fill:#bf3718;opacity:0.5;}.f267c0a8-fb76-4706-8e1f-8877fd62b4a1{fill:#fff;}</style></defs><circle class="be769e0b-c29f-4984-9568-aa162b0903f9" cx="155.72" cy="494.24" r="27.1"/><circle class="be769e0b-c29f-4984-9568-aa162b0903f9" cx="362.75" cy="494.24" r="27.1"/><path class="f267c0a8-fb76-4706-8e1f-8877fd62b4a1" d="M533.88,656.41h-3c-49.73,0-127.89-63.27-143.71-93.16-15-28.31-41.63-197.65-44.62-216.87l-.17-1.12.08-1.14c.17-2.62.08-7,0-12-.65-31.56-2-97.22,49.83-119.22a67.29,67.29,0,0,1,26.6-5.82c18,0,31.62,8.24,44.77,16.22,12.35,7.48,24,14.56,39.11,14.56A58.81,58.81,0,0,0,520,235.08c18.56-5.63,34.66-12.87,50.22-19.87,23.34-10.49,43.5-19.56,64.56-19.56a66.71,66.71,0,0,1,27.74,5.93c43.94,19.61,76.41,99.52,59.58,145.85-3.68,23.57-29.71,188-44.45,215.82C661.77,593.14,583.62,656.41,533.88,656.41ZM363.14,344.28c11.55,74.14,32.22,190.28,42.3,209.32,13.67,25.83,84.65,82.18,125.47,82.18h3c40.82,0,111.8-56.35,125.48-82.18,10.12-19.13,30.94-136.3,42.46-210.38l.57-2.12c13.68-35.58-14.32-105.51-48.33-120.68a46.54,46.54,0,0,0-19.33-4.14c-16.63,0-34.92,8.23-56.09,17.75-15.41,6.93-32.88,14.78-52.7,20.79a80,80,0,0,1-23.17,3.63c-20.87,0-36.24-9.32-49.81-17.55-11.71-7.1-21.82-13.23-34.07-13.23a47.12,47.12,0,0,0-18.54,4.19c-39,16.54-37.87,70.69-37.26,99.79C363.19,336.78,363.28,340.94,363.14,344.28Z" transform="translate(-273.74 -20.15)"/><path class="f267c0a8-fb76-4706-8e1f-8877fd62b4a1" d="M333.06,352.12c-25-50-42.13-126.78,13.94-164.46,28.9-19.42,65.91-21.61,97.62-34.6a184,184,0,0,0,73.69-54.64c11-13.73,19.15-30.38,31.53-43,23-23.4,39.34,2.66,24.52,25.09C568,90.15,583,102.05,590.56,93c10.46-12.5,25-30.73,42-33.7,42.8-7.5,29.48,28.9,7,49.9l16.2,12.5c7.23-13,59.71-54.22,51.06-13.89-1.66,7.73-12.49,16.07-17.94,22.15-4.53,5.06-3.73,12.5,2.09,16.2,44.59,28.33,48,97.51,43.24,144.76S707.1,375.68,689.83,418.8c-4.93,12.33,15,17.68,19.9,5.49,23.91-59.73,49.93-108.5,46-175.28-2.65-45.49-13.68-94.81-54.36-120.65l2.09,16.2c14.22-15.87,45.56-47.89,23.89-69C697.8,46.64,652.07,85.9,638,111.3c-5.73,10.32,7.61,20.54,16.2,12.5,20.68-19.34,47.38-60.5,15.82-84.62-30.55-23.33-76,17.77-94,39.24l16.21,12.5C604.69,72,606.79,29,579.72,21.13,564.83,16.82,549.3,27.61,539,37.28c-26.6,24.92-39.44,58.37-70.7,79.84C419.17,150.84,346.33,143.75,309.56,196c-35.73,50.76-19.8,115.43,5.69,166.54,5.92,11.89,23.72,1.45,17.81-10.41Z" transform="translate(-273.74 -20.15)"/><path class="f267c0a8-fb76-4706-8e1f-8877fd62b4a1" d="M363.81,363.1c-38.63-39.28-87.66,2.61-89.79,47.74-1.27,26.8,7.19,57.62,24.11,78.7,17.69,22,42.1,26.93,69,28.9,13.25,1,13.19-19.66,0-20.63-35.69-2.61-57.81-17.55-68-52.8-4.18-14.45-6.75-30.48-3-45.35,5.76-22.9,31.31-44.14,53.12-22,9.32,9.48,23.91-5.11,14.59-14.59Z" transform="translate(-273.74 -20.15)"/><path class="f267c0a8-fb76-4706-8e1f-8877fd62b4a1" d="M291.74,439.22c22.36-19.07,55.93,3.56,72.48,19.87,9.47,9.32,24.07-5.26,14.59-14.59-25.89-25.51-69.54-47.25-101.66-19.87-10.12,8.63,4.53,23.16,14.59,14.59Z" transform="translate(-273.74 -20.15)"/><path class="f267c0a8-fb76-4706-8e1f-8877fd62b4a1" d="M717.57,377.69c21.8-22.17,47.35-.93,53.11,22,3.74,14.87,1.18,30.9-3,45.35-10.2,35.25-32.32,50.19-68,52.8-13.16,1-13.27,21.6,0,20.63,26.4-1.93,50.53-6.49,68.18-27.85,17.42-21.06,26.36-52.72,24.92-79.75-2.38-45-51-87.2-89.78-47.74-9.32,9.48,5.26,24.08,14.59,14.59Z" transform="translate(-273.74 -20.15)"/><path class="f267c0a8-fb76-4706-8e1f-8877fd62b4a1" d="M789.64,424.63C757.52,397.25,713.86,419,688,444.5c-9.47,9.33,5.12,23.92,14.59,14.59,16.56-16.31,50.09-39,72.49-19.87,10.05,8.57,24.71-6,14.59-14.59Z" transform="translate(-273.74 -20.15)"/><path class="f267c0a8-fb76-4706-8e1f-8877fd62b4a1" d="M508.86,345.62c3.92,14.27,14.67,49.31,6.47,63.85-5.42,9.6-17.55,7.12-25.31,14.44-19,17.89-8.74,43.73,1.69,62.81,6.37,11.66,24.19,1.26,17.81-10.41-7.24-13.25-8.6-26.83,8.46-39.57,2-1.46,7.08-1,8.72-3.09,4.27-5.54,5.71-5.09,7.93-13.25,6.79-24.9.79-56-5.88-80.27-3.51-12.79-23.41-7.36-19.89,5.49Z" transform="translate(-273.74 -20.15)"/><path class="f267c0a8-fb76-4706-8e1f-8877fd62b4a1" d="M481.62,530.82c30.17,13.45,62.48,12.71,91.7-3,11.7-6.28,1.3-24.09-10.41-17.81-22.2,11.9-47.75,13.27-70.87,3-12-5.36-22.53,12.41-10.42,17.81Z" transform="translate(-273.74 -20.15)"/><circle class="f267c0a8-fb76-4706-8e1f-8877fd62b4a1" cx="172" cy="369.95" r="63.39"/><circle class="f267c0a8-fb76-4706-8e1f-8877fd62b4a1" cx="349.21" cy="369.95" r="63.39"/><path class="f267c0a8-fb76-4706-8e1f-8877fd62b4a1" d="M386.2,321.87c28.85-10.05,75.57-28.55,104.08-11.21,11.37,6.91,21.75-10.92,10.41-17.82-34.76-21.14-85-3-120,9.14-12.46,4.34-7.1,24.28,5.49,19.89Z" transform="translate(-273.74 -20.15)"/><path class="f267c0a8-fb76-4706-8e1f-8877fd62b4a1" d="M669.73,302c-35-12.19-85.22-30.27-120-9.14-11.33,6.89-1,24.74,10.41,17.82,28.48-17.32,75.31,1.19,104.09,11.21,12.56,4.38,18-15.54,5.48-19.89Z" transform="translate(-273.74 -20.15)"/><path class="f267c0a8-fb76-4706-8e1f-8877fd62b4a1" d="M359,400.63H710.27c13.28,0,13.3-20.63,0-20.63H359c-13.27,0-13.29,20.63,0,20.63Z" transform="translate(-273.74 -20.15)"/><path class="f267c0a8-fb76-4706-8e1f-8877fd62b4a1" d="M527.68,754.31q-29.13-22.93-58.26-45.86c-8.77-6.89-16.43-14.69-28.15-14.19-27.07,1.15-51,47.78-65.17,67.39-2.52,3.5-1.54,9.67,1.62,12.5l86.9,77.93c5.27,4.73,12.23,3.5,16.21-2.09,14.6-20.53,28.7-41.39,42.09-62.74,6.69-10.68,14.85-19.49,6.38-30.86-7.85-10.52-25.76-.24-17.82,10.42,3.62,4.85-42.88,64.91-48.47,72.77l16.2-2.09-86.9-77.93,1.61,12.5c12.69-17.62,33.87-60.48,60.91-49,20.39,8.64,41,32.25,58.26,45.87C523.42,777,538.11,762.52,527.68,754.31Z" transform="translate(-273.74 -20.15)"/><path class="f267c0a8-fb76-4706-8e1f-8877fd62b4a1" d="M535.81,768.9l33.29-26.21c7.45-5.86,16.41-16.42,25-19.66,28.65-10.81,47.29,30.13,60.91,49l1.61-12.5-86.91,77.93,16.2,2.09c-4.9-6.9-52.15-67.83-48.47-72.77,7.94-10.65-10-20.95-17.81-10.42-8.47,11.37-.31,20.18,6.38,30.86,13.38,21.35,27.49,42.21,42.09,62.74,4,5.59,10.93,6.82,16.2,2.09l86.91-77.93c3.12-2.8,4.15-9,1.61-12.5-14-19.45-38.24-66.24-65.16-67.39-11.81-.5-19.29,7.22-28.15,14.19q-29.16,22.89-58.27,45.86C510.8,762.51,525.49,777,535.81,768.9Z" transform="translate(-273.74 -20.15)"/><path class="f267c0a8-fb76-4706-8e1f-8877fd62b4a1" d="M522.36,771.85l-31.85,51.74a4.87,4.87,0,0,0,.46,7.06,269.84,269.84,0,0,0,37.14,39.08,2.5,2.5,0,0,0,4.24-.52l25.4-28.88c1.13-1.28,2.31-2.68,2.46-4.34a7.9,7.9,0,0,0-.67-3.28,350.35,350.35,0,0,0-31.24-64.25" transform="translate(-273.74 -20.15)"/><path class="f267c0a8-fb76-4706-8e1f-8877fd62b4a1" d="M469.75,635.38a441,441,0,0,1,2.63,92.44c-1,13.25,19.67,13.19,20.63,0a466.13,466.13,0,0,0-3.36-97.92c-1.8-13.1-21.68-7.52-19.9,5.48Z" transform="translate(-273.74 -20.15)"/><path class="f267c0a8-fb76-4706-8e1f-8877fd62b4a1" d="M580.68,631.35q-.31,41.26-1.77,82.52c-.47,13.27,20.16,13.26,20.63,0q1.46-41.25,1.78-82.52c.1-13.28-20.53-13.3-20.64,0Z" transform="translate(-273.74 -20.15)"/><path class="f267c0a8-fb76-4706-8e1f-8877fd62b4a1" d="M471.8,847.22c-2-3.7-4.94-6.76-7.88-9.74-21-21.3-43.62-47.82-68.81-64.17-15.86-10.29-21.81-1-36.12,10.16q-18.08,14-35.2,29.25c-16,14.16-36.49,24.72-30.3,47.71,10.71,39.77,48.5,72.07,89.22,76.89,25.93,3.07,52.69-3.5,78.09,2.53,11,2.59,21.13,7.41,31.26,12.4a812.18,812.18,0,0,1-16.34-89.17C475,857.65,474.36,852.06,471.8,847.22Z" transform="translate(-273.74 -20.15)"/><path class="f267c0a8-fb76-4706-8e1f-8877fd62b4a1" d="M716.35,823c-11.24-13.43-25.88-37.22-41.27-45.77-22.56-12.55-70.22,50.36-86.11,67.17-3,3.19-6.09,6.51-7.68,10.6s-1.55,8.65-1.55,13.06A443.06,443.06,0,0,1,567.36,971.2c4.18-.06,8.36-.21,12.53-.49,69.06-4.57,139.77-38.84,171-100.59l1.78-.65Q735.29,845.65,716.35,823Z" transform="translate(-273.74 -20.15)"/><path class="f267c0a8-fb76-4706-8e1f-8877fd62b4a1" d="M509.13,851.69,492.06,952.25s33.73,23.1,75.3,19L541.45,844.79" transform="translate(-273.74 -20.15)"/></svg>