<svg id="ad2efc29-eca0-400f-a50f-4f34187ccd71" data-name="Capa 3" xmlns="http://www.w3.org/2000/svg" viewBox="0 0 536.48 835.73"><defs><style>.f85561c6-ddd3-4f6e-8a82-ba0e8b1ad3a3{fill:#bf3718;opacity:0.5;}.a3b10414-4108-45c0-821e-d0714d70aeec{fill:#fff;}</style></defs><circle class="f85561c6-ddd3-4f6e-8a82-ba0e8b1ad3a3" cx="179.35" cy="422.71" r="24.41"/><circle class="f85561c6-ddd3-4f6e-8a82-ba0e8b1ad3a3" cx="365.84" cy="422.71" r="24.41"/><path class="a3b10414-4108-45c0-821e-d0714d70aeec" d="M485.62,411.36c-.79,11.58-6.51,31.7,3.2,40.82,4.17,3.91,10.08,4.9,15.57,4.56,2.86-.17,5.92-1.8,8.66-1.63,14.15.84,6,10-.27,14-10.09,6.37-.77,22.46,9.38,16.05,14.24-9,27.1-28,12.85-43.34-6.14-6.59-14.41-7.16-22.81-5.58-2,.38-6,2.34-8,1.53-2.76-1.13-1.62-3-1.37-6.57l1.35-19.82c.81-11.94-17.78-11.89-18.59,0Z" transform="translate(-231.76 -82.14)"/><path class="a3b10414-4108-45c0-821e-d0714d70aeec" d="M666.63,358.24c-.67,33.59-1.88,67.16-3.92,100.7-2.15,35.37.74,78.08-27,104.42-16.31,15.46-34.43,25.4-47.38,44.19-21.54,31.23-34.4,67.53-80.48,67.53-45.44,0-58.89-36.24-80.48-67.53-12.9-18.69-31.17-28.82-47.38-44.19-27.9-26.45-24.88-68.85-27.05-104.42-2-33.54-3.25-67.11-3.92-100.7-.24-11.94-18.83-12-18.59,0,1,47.91,2.42,96.06,7,143.79,2.76,29,7.54,53.73,29.44,74.47,14.84,14,32.29,23.26,44.48,40.43,9.25,13,14.65,28.48,24.73,41,17.2,21.42,44.05,35.54,71.8,35.69S562.39,679.11,579.6,658c10.17-12.49,15.56-27.94,24.73-41,10.82-15.46,26.54-25.06,40.54-37.16,22.85-19.73,29.9-42.95,32.89-72.24,5-49.5,6.46-99.57,7.46-149.29.24-12-18.35-12-18.59,0Z" transform="translate(-231.76 -82.14)"/><path class="a3b10414-4108-45c0-821e-d0714d70aeec" d="M327.88,362c19,5.09,68.21,9.61,75.17-18,5-20-25.29-31.84-40.55-33.16l4.69,17.32C405.89,304.65,440.91,270,485,256.65c32.48-9.86,67.79-6.66,67.52,36.05-.09,13.05-6.94,27.65-8.46,40.88-6.07,52.84,45,53,75.68,21.37L605.1,343.69c-10.67,24.23-13,73.1,27.89,63.95,34.12-7.64,57.3-55.76,60.61-87,1.26-11.88-17.33-11.79-18.59,0-1.8,17.05-10,32.85-20.22,46.36-3,4-9.71,14.56-15.2,16-16.64,4.54-25.45-14.1-18.45-30,4-9-6.67-19.42-14.59-11.26Q595,364,576.52,349.6q-19.21,1.11-14.17-12.57c-1.22-7,2.55-16.65,4.13-23.69,2.17-9.68,6.24-19.91,6.59-29.88.75-21.23-12-37.92-31.25-45.88-65.36-27-134.11,44.22-184,74.53-8.3,5-4.22,16.55,4.69,17.32,12.29,1.06,28.41,8.28,6.46,16.75-10.36,4-26.11.57-36.14-2.11-11.56-3.09-16.5,14.83-4.94,17.92Z" transform="translate(-231.76 -82.14)"/><path class="a3b10414-4108-45c0-821e-d0714d70aeec" d="M330.33,274.29c15-30.13,7.1-71.84-26.68-86.09-29.64-12.51-47.1,4.52-48.12,32.66-.68,18.72,5.68,30.87,8.75,48,7,39.35-24.69,46.24-31.06,78.07-10,49.81,32.88,83.53,72.27,102.81,10.7,5.24,20.13-10.78,9.38-16-29.55-14.47-67.84-38.14-64.41-76.5,2.63-29.45,32.41-36.5,37.57-62.69,3.81-19.36-10.6-36.21-13.24-54.51-1-6.87-3.81-27.44.47-33.18q33.48-6.32,42.4,23.46,5.94,17.77-3.38,34.61C309,275.59,325,285,330.33,274.29Z" transform="translate(-231.76 -82.14)"/><path class="a3b10414-4108-45c0-821e-d0714d70aeec" d="M340.6,238.68c2.49-47.23,69.29-44.62,101.65-56.74,16.78-6.29,32.74-14.71,46.17-26.69,14.34-12.79,25.85-26.08,41.87-37.25,6.45-4.5,13.77-10.34,21.26-13.14,35.34-13.24,30.11,31,13.9,53.5-6.2,8.6,7.47,18.9,14.59,11.26,8.12-8.69,25.05-42.25,35.3-44.73,20.68-5,25.3,30.73,25.35,42.39.07,16.49-5,32.32-11.75,47.16-4.93,10.8,11.08,20.26,16,9.38,13.15-28.79,27.68-89.26-5.21-112.72-36.44-26-55,26.27-72.87,45.38l14.59,11.26c17.46-24.23,33.81-62,0-81.12-24.93-14.09-51.7,8.25-70.93,22.94-11.66,8.91-20.7,19-31.25,29-22.17,21-51.1,29.47-80.16,35.87-37.26,8.2-74.85,20.62-77.15,64.25-.63,11.95,18,11.92,18.58,0Z" transform="translate(-231.76 -82.14)"/><path class="a3b10414-4108-45c0-821e-d0714d70aeec" d="M646.55,196.19c13.84-4.28,29.79-10,44.4-9.1,29.14,1.77,39.72,32.75,35,58.21-1.82,9.78-6.25,15-3.5,24.94,1,3.59,5.07,4.36,6.93,7.14,13,19.56,25.46,26.51,18,53.76-9,32.72-42.42,51.78-69.52,68-10.25,6.15-.92,22.23,9.38,16.05,31.75-19.05,67-41.3,78.06-79.15a70,70,0,0,0-.25-40.95c-4.12-13.08-15.87-19.42-20.59-30.65-5.34-12.69,5.33-31.52,3.66-47.65-1.28-12.39-6.12-24-15.21-32.69-25-24-62.27-14.84-91.3-5.87-11.39,3.52-6.53,21.46,4.94,17.92Z" transform="translate(-231.76 -82.14)"/><path class="a3b10414-4108-45c0-821e-d0714d70aeec" d="M685.14,462.71c26.33-28.78,57.52,10.54,56.38,38.39-1.27,31-40.3,49.18-67.73,36.54-10.79-5-20.25,11-9.38,16.05,42.81,19.72,97.74-8.78,95.68-58-1.78-42.58-52.31-85.24-88.09-46.12-8.06,8.81,5,22,13.14,13.14Z" transform="translate(-231.76 -82.14)"/><path class="a3b10414-4108-45c0-821e-d0714d70aeec" d="M751.87,505.21c-24-19-55.54-22.29-82.56-7.4-10.48,5.77-1.11,21.83,9.38,16.05,19.1-10.53,42.76-9.2,60,4.49,9.28,7.35,22.52-5.71,13.14-13.14Z" transform="translate(-231.76 -82.14)"/><path class="a3b10414-4108-45c0-821e-d0714d70aeec" d="M673.64,513.58a61.26,61.26,0,0,1,13.88,18.93c2.17,4.53,8.64,5.72,12.72,3.34,4.63-2.71,5.5-8.17,3.33-12.72a75.22,75.22,0,0,0-16.79-22.69c-8.77-8.11-21.94,5-13.14,13.14Z" transform="translate(-231.76 -82.14)"/><path class="a3b10414-4108-45c0-821e-d0714d70aeec" d="M349.47,449.57c-35.66-39-86.46,3.44-88.09,46.12-1.88,49.18,52.76,77.77,95.69,58,10.85-5,1.42-21-9.38-16.05C320.08,550.36,281.45,532,280,501.1c-1.34-27.78,30.07-67.16,56.38-38.39,8.09,8.85,21.21-4.32,13.14-13.14Z" transform="translate(-231.76 -82.14)"/><path class="a3b10414-4108-45c0-821e-d0714d70aeec" d="M282.74,518.35c17.27-13.68,40.93-15,60-4.49,10.49,5.77,19.87-10.27,9.38-16.05-27-14.89-58.56-11.62-82.56,7.4-9.37,7.42,3.86,20.5,13.14,13.14Z" transform="translate(-231.76 -82.14)"/><path class="a3b10414-4108-45c0-821e-d0714d70aeec" d="M334.69,500.44a75.56,75.56,0,0,0-16.79,22.69c-2.16,4.53-1.25,10,3.33,12.72,4.06,2.37,10.54,1.21,12.72-3.34a61.26,61.26,0,0,1,13.88-18.93c8.8-8.14-4.36-21.26-13.14-13.14Z" transform="translate(-231.76 -82.14)"/><path class="a3b10414-4108-45c0-821e-d0714d70aeec" d="M454.34,547.49c25,12.32,51,16.3,78.56,12.45,11.79-1.64,6.78-19.55-4.94-17.92a109.71,109.71,0,0,1-64.24-10.58c-10.69-5.27-20.12,10.75-9.38,16Z" transform="translate(-231.76 -82.14)"/><path class="a3b10414-4108-45c0-821e-d0714d70aeec" d="M397.42,365.7c16.84-5.79,34.26-5.38,50.44,2.34,10.74,5.12,20.18-10.9,9.38-16.05-20.59-9.82-43.08-11.67-64.76-4.21-11.24,3.87-6.41,21.82,4.94,17.92Z" transform="translate(-231.76 -82.14)"/><path class="a3b10414-4108-45c0-821e-d0714d70aeec" d="M424.46,643.12c6.89,36.24,5.09,62-22.53,88-19.67,18.58-40.6,39.08-66.29,48.63-5.7,2.12-8.59,8-5.55,13.65,35,64.9,104,131.35,183,123.84,29.8-2.83,57.31-15.68,81.36-33.08,28.88-20.9,73.31-58.72,85.77-93.22,7.1-19.65-7.06-30.33-23-39.82-14.16-8.45-31.75-14.06-42.77-26.86-18.35-21.33-16.47-67.43-19-94.39-1.11-11.81-19.7-11.93-18.58,0,2.66,28.32,1.11,64.57,13,90.83,10.93,24.19,34.14,31,54.56,44.59,6.21,4.13,17.58,9.88,18.53,18.7,1,9.13-23.05,30.52-27.76,36C622,835.5,607.84,850,592,862.63c-25.46,20.27-55.77,36.18-89,36.72-68.19,1.1-126.42-59-156.81-115.29l-5.56,13.65c34.36-12.78,67.05-42,90.73-69.47,21.52-25,16.86-59.63,11.07-90.06-2.23-11.74-20.15-6.77-17.92,4.94Z" transform="translate(-231.76 -82.14)"/><circle class="a3b10414-4108-45c0-821e-d0714d70aeec" cx="202.57" cy="351.5" r="12.98"/><circle class="a3b10414-4108-45c0-821e-d0714d70aeec" cx="337.1" cy="351.5" r="12.98"/><path class="a3b10414-4108-45c0-821e-d0714d70aeec" d="M607.91,730.87l-.45-.54C567.17,745.85,525.56,756,483,751.66A210.51,210.51,0,0,1,414.24,732c-12.19,11.83-24.76,23.27-37.88,34-11.57,9.49-23.88,18.75-38.25,22.68,0,0,144,269.81,332.87,0C687.44,765.21,626.41,752.75,607.91,730.87Z" transform="translate(-231.76 -82.14)"/><path class="a3b10414-4108-45c0-821e-d0714d70aeec" d="M520.82,678.62,522,651.81c.52-11.95-18.07-11.93-18.58,0l-1.16,26.81c-.51,12,18.07,11.94,18.59,0Z" transform="translate(-231.76 -82.14)"/></svg>