<svg id="b21c990c-ea69-4e02-935e-075b1a6ce3b6" data-name="Capa 2" xmlns="http://www.w3.org/2000/svg" viewBox="0 0 576.03 896.87"><defs><style>.a68e0639-9aae-44a7-8288-f61836851de3{fill:#fff;}.ba3587b9-6805-4719-a913-26b2255298c3{fill:#bf3718;opacity:0.5;}</style></defs><path class="a68e0639-9aae-44a7-8288-f61836851de3" d="M680.89,316c-.34,66.24-3.36,132.36-9.88,198.3-3.16,32-10.32,40.7-35.81,60.37A424.4,424.4,0,0,1,596,601.06c-28,17-62.78,36-96.75,35.67-34.43-.33-68.1-18.24-96.76-35.67-32.11-19.54-70.14-39.23-74.18-78.81C320.83,448.59,318,374.41,317.6,300.39c-.07-14.67-22.89-14.7-22.81,0C295.05,351.7,296.6,403,300,454.15c2,30.47-3.59,81.27,13.35,108.69,16.74,27.1,64.23,51,91.05,65.79,28.41,15.7,61.81,30.91,94.88,30.91,30.64,0,61.38-13.21,88.09-27.3,29.06-15.34,78.85-39.62,96.94-68.24,16.06-25.42,11.44-68.8,13.63-97.5,3.81-50.11,5.5-100.26,5.75-150.5.08-14.69-22.74-14.71-22.81,0Z" transform="translate(-211.98 -51.57)"/><path class="a68e0639-9aae-44a7-8288-f61836851de3" d="M459.42,338.45c6.43,22.18,13.06,45,14.57,68.19a39,39,0,0,1-.57,20.06,15.11,15.11,0,0,0-7.31-2.61c-4.54,1.22-8.94-1.14-13.6,1.13-27.42,13.39,9.95,57.7,20.38,69.25,9.86,10.92,25.95-5.26,16.13-16.14,1.28,1.43-23.12-28.14-21.66-29.63,0,0,9.88,1.59,12,1.18,10.09-2,15.65-10.4,17.84-19.61,6.93-29.09-7.81-70.35-15.79-97.88-4.08-14.08-26.1-8.09-22,6.06Z" transform="translate(-211.98 -51.57)"/><path class="a68e0639-9aae-44a7-8288-f61836851de3" d="M442.09,533.4c36.23,29.63,84.43,24,112.94-12.95,9-11.62-10.85-23-19.7-11.52-19,24.59-53.19,27.9-77.11,8.33C447,508,430.71,524.09,442.09,533.4Z" transform="translate(-211.98 -51.57)"/><path class="a68e0639-9aae-44a7-8288-f61836851de3" d="M352.39,336.63c11.15-14.07,28.05-20.76,45.71-16.3,14.24,3.59,20.31-18.4,6.06-22-24.89-6.29-51.79,1.85-67.91,22.17-9,11.39,7,27.64,16.14,16.13Z" transform="translate(-211.98 -51.57)"/><path class="a68e0639-9aae-44a7-8288-f61836851de3" d="M568.87,319.87a52.61,52.61,0,0,1,49,13.32c10.65,10.11,26.81-6,16.14-16.13a76.49,76.49,0,0,0-71.16-19.19c-14.29,3.36-8.24,25.36,6.06,22Z" transform="translate(-211.98 -51.57)"/><circle class="a68e0639-9aae-44a7-8288-f61836851de3" cx="205.57" cy="355.58" r="14.28"/><circle class="a68e0639-9aae-44a7-8288-f61836851de3" cx="362.06" cy="355.58" r="14.28"/><path class="a68e0639-9aae-44a7-8288-f61836851de3" d="M287.43,332.37A501.55,501.55,0,0,1,462,194c13.23-6.36,1.67-26-11.51-19.7A515.9,515.9,0,0,0,271.3,316.24c-9.14,11.33,6.9,27.57,16.13,16.13Z" transform="translate(-211.98 -51.57)"/><path class="a68e0639-9aae-44a7-8288-f61836851de3" d="M442,183.6c-18.29,30.08-30.71,62.56-35.54,97.53-3.22,23.3-9,60.78,16.45,74.18,20.77,10.94,47-3.56,62.57-17.55,23.22-20.89,33.93-50,34.09-80.76l-22.4,3c5.21,34.1,36.86,76.84,71.74,45.54,35.78-32.09,32.48-92.3,14-131.82-6.2-13.29-25.88-1.72-19.7,11.52,10.89,23.32,14.26,49.82,6.11,74.65-4,12-14.18,41-35.45,28.68-10-5.78-13.24-24.82-14.74-34.64-2-13-22.35-9.47-22.41,3-.11,20.6-5.64,39.52-18.85,55.37-17.18,20.6-51.16,34.71-51-3.7.2-40.28,14.05-79.49,34.76-113.56,7.64-12.58-12.08-24.06-19.7-11.51Z" transform="translate(-211.98 -51.57)"/><path class="a68e0639-9aae-44a7-8288-f61836851de3" d="M576.81,207.42a604.4,604.4,0,0,1,129,143c8,12.28,27.7.86,19.7-11.52A623.59,623.59,0,0,0,592.94,191.28c-11.32-9.14-27.56,6.91-16.13,16.14Z" transform="translate(-211.98 -51.57)"/><path class="a68e0639-9aae-44a7-8288-f61836851de3" d="M309.34,391.91c-17.7-16.47-44.69-30.51-69.22-20.78C219,379.52,212.79,404.18,212,424.78c-1.83,50.11,41.78,112.56,97.52,91.25,13.58-5.19,7.69-27.26-6.06-22-35.05,13.4-61.9-20.91-67.36-52.1-2.08-11.87-3.72-31.34,3.94-41.35C254.75,381.4,280,395.7,293.21,408c10.74,10,26.91-6.1,16.13-16.13Z" transform="translate(-211.98 -51.57)"/><path class="a68e0639-9aae-44a7-8288-f61836851de3" d="M230.84,456.46c24.42-12.26,52.59-7,71.94,12,10.5,10.28,26.65-5.84,16.14-16.13-26.94-26.37-66-32.42-99.6-15.53-13.12,6.58-1.58,26.27,11.52,19.7Z" transform="translate(-211.98 -51.57)"/><path class="a68e0639-9aae-44a7-8288-f61836851de3" d="M288.68,443.36a61.35,61.35,0,0,0-23,22.86c-7.33,12.75,12.37,24.25,19.7,11.52a38.36,38.36,0,0,1,14.82-14.68c12.78-7.23,1.3-26.94-11.51-19.7Z" transform="translate(-211.98 -51.57)"/><path class="a68e0639-9aae-44a7-8288-f61836851de3" d="M706.79,408c12.51-11.64,29.45-21.91,45.23-12.29,15,9.14,14.66,30.09,11.84,46.18-5.45,31.13-32.4,65.47-67.36,52.1-13.72-5.25-19.66,16.8-6.06,22,55.72,21.3,99.35-41.14,97.52-91.25-.76-20.77-7-45.07-28.08-53.65-24.37-9.9-51.7,4.47-69.22,20.78-10.77,10,5.39,26.13,16.13,16.13Z" transform="translate(-211.98 -51.57)"/><path class="a68e0639-9aae-44a7-8288-f61836851de3" d="M780.68,436.76c-34.81-16.78-74.87-11-103.13,15.53-10.72,10.07,5.44,26.18,16.14,16.13,20.38-19.16,50.12-24.18,75.47-12,13.17,6.34,24.76-13.32,11.52-19.7Z" transform="translate(-211.98 -51.57)"/><path class="a68e0639-9aae-44a7-8288-f61836851de3" d="M699.81,463.06a38.5,38.5,0,0,1,14.82,14.68c7.32,12.72,27,1.24,19.7-11.52a61.35,61.35,0,0,0-23-22.86c-12.8-7.24-24.31,12.47-11.51,19.7Z" transform="translate(-211.98 -51.57)"/><path class="a68e0639-9aae-44a7-8288-f61836851de3" d="M419.41,636.76c-2.76,25.25-4.79,48.45-20,70.57-10.77,15.71-32.6,29.18-47.55,40.75-29.35,22.73-60.42,42.09-93.15,59.57a11.55,11.55,0,0,0-5.24,12.89c30.11,98.18,158.78,127.79,246.81,127.89,86.93.1,216.17-29.53,244.08-127.89,1.33-4.7-.85-10.54-5.25-12.89-32.7-17.46-63.8-36.85-93.15-59.57-41.63-32.24-61.47-56.23-67.5-111.32-1.58-14.44-24.41-14.6-22.81,0,3,27.22-.85,51.84,15.65,74.92,15.4,21.54,41.26,39.51,61.86,55.37q19.06,14.67,39.13,27.94,13.39,8.79,27.23,16.9,9.23,13.18,18.36,5.36c3.23,3.55,3.41-4.29.39,7.52C712.1,849,681.9,873,662.68,885.53c-47.52,31.09-106.59,40.09-162.35,40.09-68.24,0-194.63-20.17-220.43-100.85-.79-2.5-5-7.35-4.31-10.07-3.25,13.34,47.42-18,50-19.71q20.07-13.25,39.12-27.94c20-15.41,47.34-34.25,61.86-55.37,16.08-23.38,12.66-47.52,15.66-74.92,1.59-14.58-21.24-14.47-22.82,0Z" transform="translate(-211.98 -51.57)"/><path class="a68e0639-9aae-44a7-8288-f61836851de3" d="M639.79,757.81c-11.4,4.83-22,14.59-30.71,23.86l-47.73,50.88c-9,9.55-18.17,19.3-29.81,25.33C502,873.21,464.63,860.19,439.78,838s-41.23-52-61.87-78.19a113.65,113.65,0,0,0-9.27-10.41A619,619,0,0,1,264.52,817.5S299.43,937,500.34,937,733.41,817.5,733.41,817.5A618.71,618.71,0,0,1,639.79,757.81Z" transform="translate(-211.98 -51.57)"/><path class="a68e0639-9aae-44a7-8288-f61836851de3" d="M766,389c22.53-84.22,31.43-163.24-23.11-235.14C687.3,80.67,595.9,51.45,506.7,51.57c-89,.11-176.47,31.42-229.47,105.86-44.51,62.51-60.1,146.48-40.29,220.56,3.79,14.17,25.81,8.16,22-6.07-17.21-64.36-5-137.27,31.36-193.16,47.9-73.7,131-104.18,216.4-104.38,83.57-.19,170.35,27,221,97.17C774.77,236.77,764.07,307.75,744,383c-3.8,14.2,18.2,20.26,22,6.07Z" transform="translate(-211.98 -51.57)"/><path class="a68e0639-9aae-44a7-8288-f61836851de3" d="M267.37,515.39c9.52,36.68-5.41,56.69-14.47,90.27-2.41,9-5.13,18-2.88,27.43,6.22,26.07,24.75,19.44,40.28,33.11,15,13.17,4.89,39.32,18.75,56.56,20.27,25.23,55,24,84,21.76,14.54-1.15,14.67-24,0-22.82-34.2,2.71-52.66,7.24-68.68-46.42-1.19-4,1.88-10.58-1-14.28-5.25-6.72-8.53-8.52-16.18-14l-10.82-2.75q-29.1-24.42-14.42-47.85c2-7.84,7.16-15.36,9.32-23.36,5.77-21.46,3.6-42.5-1.89-63.67-3.69-14.2-25.7-8.18-22,6.07Z" transform="translate(-211.98 -51.57)"/><path class="a68e0639-9aae-44a7-8288-f61836851de3" d="M716.73,510.66c2.15,35.61,8.38,69.17,13.71,104.26,11.17,73.47-43,105.45-109.37,113.68-14.38,1.78-14.56,24.62,0,22.81,47.64-5.91,98.78-19.7,123.93-64.87,27.88-50.07-2.32-123.83-5.45-175.88-.88-14.59-23.7-14.69-22.82,0Z" transform="translate(-211.98 -51.57)"/><path class="a68e0639-9aae-44a7-8288-f61836851de3" d="M482.52,122c-90.17,1-180.56,64.9-242.59,125.44-10.53,10.28,5.61,26.4,16.13,16.14C313.11,207.89,399.2,145.73,482.52,144.8c14.67-.16,14.71-23,0-22.81Z" transform="translate(-211.98 -51.57)"/><path class="a68e0639-9aae-44a7-8288-f61836851de3" d="M382.1,101.73a388.32,388.32,0,0,1,108.31-1.38c14.53,1.79,14.4-21,0-22.82A409.27,409.27,0,0,0,376,79.73c-14.46,2.26-8.32,24.24,6.07,22Z" transform="translate(-211.98 -51.57)"/><path class="a68e0639-9aae-44a7-8288-f61836851de3" d="M527.65,142.51C644.12,145.63,716.49,245,752.14,345.72c4.86,13.75,26.92,7.83,22-6.06C734.87,228.76,655,123.11,527.65,119.7c-14.69-.4-14.68,22.42,0,22.81Z" transform="translate(-211.98 -51.57)"/><path class="a68e0639-9aae-44a7-8288-f61836851de3" d="M523,107.29,596.77,90.8c14.32-3.2,8.26-25.21-6.06-22L516.89,85.29c-14.33,3.21-8.27,25.21,6.06,22Z" transform="translate(-211.98 -51.57)"/><path class="a68e0639-9aae-44a7-8288-f61836851de3" d="M340.11,590.05c6,44.64,3.54,89.65-21.53,128.35-8,12.36,11.73,23.81,19.7,11.51,28.56-44.07,30.64-95.23,23.83-145.93-1.95-14.48-23.93-8.31-22,6.07Z" transform="translate(-211.98 -51.57)"/><path class="a68e0639-9aae-44a7-8288-f61836851de3" d="M630.66,592.19a317,317,0,0,0,32.88,140.59c6.46,13.19,26.14,1.64,19.7-11.51a290.34,290.34,0,0,1-29.76-129.08c0-14.68-22.83-14.71-22.82,0Z" transform="translate(-211.98 -51.57)"/><path class="a68e0639-9aae-44a7-8288-f61836851de3" d="M664.15,564.19A249.35,249.35,0,0,0,726.63,678c10.15,10.65,26.27-5.5,16.13-16.13a225.85,225.85,0,0,1-56.61-103.7c-3.49-14.25-25.5-8.22-22,6.07Z" transform="translate(-211.98 -51.57)"/><circle class="ba3587b9-6805-4719-a913-26b2255298c3" cx="148.32" cy="463.12" r="36.66"/><circle class="ba3587b9-6805-4719-a913-26b2255298c3" cx="428.38" cy="463.12" r="36.66"/></svg>