<svg id="ee74264e-6f6e-483e-b800-b255bb87b110" data-name="Capa 1" xmlns="http://www.w3.org/2000/svg" viewBox="0 0 659.19 889.37"><defs><style>.b680eb6a-85e8-4de8-93c8-b0983242d55b{fill:#bf3718;opacity:0.5;}.a825e24e-ddb5-4d95-b87c-ca6416c86479{fill:#fff;}</style></defs><circle class="b680eb6a-85e8-4de8-93c8-b0983242d55b" cx="177.73" cy="450.41" r="35.12"/><circle class="b680eb6a-85e8-4de8-93c8-b0983242d55b" cx="446.04" cy="450.41" r="35.12"/><path class="a825e24e-ddb5-4d95-b87c-ca6416c86479" d="M288.94,359.07c5.36,43.67,10.17,87.45,16.08,131.05,3.67,27,8.42,50.61,27,71.35,34.31,38.28,112.3,89.09,166,84.26,50.07-4.51,116.67-50.28,142.56-92.9,19.92-32.8,24.47-73.21,31.07-110.28,7.11-40,13-80.1,18.17-120.36,1.79-13.91-20.09-13.78-21.86,0-7.51,58.53-15.1,118.45-29.49,175.76-15.46,61.6-59.28,90-113.57,115-51.79,23.93-135.6-20.71-172.62-61.7-40.11-44.41-34.53-135.2-41.53-192.22-1.69-13.78-23.57-13.95-21.86,0Z" transform="translate(-171.59 -55.31)"/><path class="a825e24e-ddb5-4d95-b87c-ca6416c86479" d="M542.46,615.48c-1.07,22.06-8.26,61.84,2.43,82.84,8.67,17,31,28,45.83,38.33,40.84,28.34,95.69,74.76,145.41,83.78l-2.61-20c-60.58,40.24-123.43,90-194.06,110.51C462,933.43,371.68,924.72,302.68,881.6,287.29,872,273.4,860.8,262.81,846c-12.86-18-17.68-22,3.2-35.39,28.61-18.37,59.87-33.3,88.57-51.94,21.88-14.21,61.49-32,75.72-55.5,13.92-23,6.47-62.33,5.24-87.66-.69-14-22.55-14.08-21.86,0,1.75,35.89,3.33,66.33-24.74,93.37-16,15.45-39.72,27.44-58.6,39.38-22.4,14.16-45.43,29.29-69.31,40.85-8,3.86-20.08,5.91-26.29,12.8-30.65,34,37.38,87.44,62.31,101.89,65.32,37.86,145.91,49.1,219.66,35.07,85.33-16.25,157-72.44,227.84-119.51,7.12-4.72,7.3-18.17-2.61-20-36.76-6.68-76.9-39.72-107.79-59.79-16-10.41-38.55-21.27-51.54-35.31-25.07-27.1-19.87-56.49-18.29-88.78.69-14.06-21.17-14-21.86,0Z" transform="translate(-171.59 -55.31)"/><path class="a825e24e-ddb5-4d95-b87c-ca6416c86479" d="M455,944.69c-51.36,0-101.94-12-146.29-34.61-23.13-11.8-40.79-24.66-54-39.3-6.49-7.21-38.14-44.21-23.72-65.45,3.94-5.79,11.65-9.07,23-13.4,2.83-1.08,6-2.31,7.29-3q14.52-7.95,28.83-16.28C301.3,766.14,313,759,326.89,750.3A10.92,10.92,0,0,1,342,753.75c6.2,9.87,12.14,19.35,18.29,28.34,18.76,27.41,36.6,45.21,56.14,56,25,13.82,57.94,17.8,90,11,27.82-5.87,56.68-19.64,85.77-40.92a349.91,349.91,0,0,0,54.79-50,10.92,10.92,0,0,1,13.9-2c24,14.79,46,27.48,67.09,38.78,4.07,2.18,7.67,4,10.47,4a11.36,11.36,0,0,1,10.78,7.68,10.76,10.76,0,0,1-3.93,12.25c-8.58,5.89-20.58,13.41-32.19,20.68-11.41,7.16-23.21,14.55-31.43,20.18-29.43,20.21-59.88,41.11-93.39,56.42C547.38,934.83,501.32,944.69,455,944.69ZM249,818c-1.05,5.47,9.91,24.83,22,38.2,11.37,12.62,27,23.89,47.68,34.46C360,911.69,407.1,922.83,455,922.83c43.19,0,86.11-9.17,124.1-26.53,31.8-14.52,61.44-34.87,90.12-54.55,8.58-5.89,20.59-13.41,32.19-20.68,4.44-2.79,9-5.61,13.28-8.35-18.33-9.88-37.28-20.79-57.63-33.16A370.93,370.93,0,0,1,605,825.86C573.41,849,541.73,864,510.86,870.52c-37.09,7.84-75.46,3.05-105-13.29-29.74-16.44-50.55-43.71-63.61-62.79-4.47-6.54-8.77-13.22-13-19.85-10.21,6.33-19.32,11.81-28.14,16.95Q286.54,800,271.8,808.1a87.75,87.75,0,0,1-10,4.25C258.11,813.76,251.47,816.31,249,818Z" transform="translate(-171.59 -55.31)"/><path class="a825e24e-ddb5-4d95-b87c-ca6416c86479" d="M252.15,358.38C329.09,388.5,377.71,306.71,423,260c44.15-45.55,100-59.92,159-33.94,55,24.2,88.64,75.55,94.72,134.61,1.43,13.85,23.3,14,21.86,0-9.08-88.12-73.1-160.91-163.72-169.6-43.34-4.16-79.68,10.15-112.17,38.76C377.39,269.73,331.47,366.08,258,337.3c-13.1-5.13-18.79,16-5.81,21.08Z" transform="translate(-171.59 -55.31)"/><path class="a825e24e-ddb5-4d95-b87c-ca6416c86479" d="M589.43,109C502.3,46,370.78,34.73,278.73,95.22c-96.4,63.35-116.24,186.57-78.79,289.31,4.78,13.11,25.91,7.45,21.08-5.81-35.21-96.58-17.48-218.15,80.16-271.55,86.6-47.36,198.38-36.33,277.21,20.69,11.42,8.25,22.34-10.7,11-18.88Z" transform="translate(-171.59 -55.31)"/><path class="a825e24e-ddb5-4d95-b87c-ca6416c86479" d="M297.34,386.65c-5.7,1.59-24-12.11-29.7-14.53a95.81,95.81,0,0,0-16.8-5.7c-11.62-2.59-24.08-2.42-35.18,2.07-24.84,10-37.33,40-38.16,65.32C176.56,462.6,193.13,486,218.84,498c29.89,13.87,63.33,8.31,94.49,2.82,13.83-2.43,8-23.5-5.81-21.07-23.95,4.21-50.27,9.3-73.93.76-27.83-10.05-39.68-34.63-31.1-63,9.41-31.12,34.11-35.92,61.49-23,12.93,6.09,24.3,17.47,39.17,13.33,13.53-3.78,7.78-24.87-5.81-21.08Z" transform="translate(-171.59 -55.31)"/><path class="a825e24e-ddb5-4d95-b87c-ca6416c86479" d="M191.09,442.41c41.54-15,79.13,6.35,114.08,27.5,12.07,7.29,23.07-11.6,11-18.88-40-24.19-83.76-46.72-130.93-29.69-13.13,4.74-7.46,25.87,5.81,21.07Z" transform="translate(-171.59 -55.31)"/><path class="a825e24e-ddb5-4d95-b87c-ca6416c86479" d="M255.09,425.31c-11.82,9.09-18.91,21.67-19.19,36.77-.25,14.07,21.61,14.07,21.86,0,.12-6.68,2.92-13.71,8.36-17.89,4.68-3.59,7.17-9.41,3.92-15-2.68-4.6-10.24-7.54-15-3.92Z" transform="translate(-171.59 -55.31)"/><path class="a825e24e-ddb5-4d95-b87c-ca6416c86479" d="M544.66,140.62c56.19-6.78,102-46.3,160.82-39.66,71.61,8.1,103.79,75.8,103.56,141.31-.34,99.71-80.18,209-166.63,254-12.48,6.5-1.44,25.37,11,18.87,100-52.09,188.32-181.29,176.23-296.94-5.36-51.28-29.75-103.84-78-127.34-26.9-13.08-58-15.33-87.26-10.85-42.19,6.47-77.48,33.64-119.7,38.73-13.79,1.66-14,23.54,0,21.86Z" transform="translate(-171.59 -55.31)"/><path class="a825e24e-ddb5-4d95-b87c-ca6416c86479" d="M629.57,199c94,38.52,102.78,146.74,100.35,234.53-.39,14.07,21.47,14.06,21.86,0,2.75-99.67-12.7-213.11-116.4-255.61-13-5.33-18.67,15.8-5.81,21.08Z" transform="translate(-171.59 -55.31)"/><path class="a825e24e-ddb5-4d95-b87c-ca6416c86479" d="M654.15,170.26c72.06,0,130.91,45.6,149.09,115.23,3.55,13.6,24.64,7.83,21.08-5.81-20.66-79.1-88.44-131.31-170.17-131.28-14.07,0-14.09,21.86,0,21.86Z" transform="translate(-171.59 -55.31)"/><path class="a825e24e-ddb5-4d95-b87c-ca6416c86479" d="M358.14,177.13c-36.91-26.76-81.64-29.66-125.75-31-14.07-.42-14.06,21.44,0,21.85,40.56,1.2,80.78,3.38,114.71,28,11.41,8.27,22.33-10.69,11-18.87Z" transform="translate(-171.59 -55.31)"/><path class="a825e24e-ddb5-4d95-b87c-ca6416c86479" d="M201.76,235.78a538.42,538.42,0,0,1,126.72-8.68c14.06.67,14-21.19,0-21.85A563.1,563.1,0,0,0,196,214.7c-13.8,2.62-8,23.69,5.81,21.08Z" transform="translate(-171.59 -55.31)"/><path class="a825e24e-ddb5-4d95-b87c-ca6416c86479" d="M465.45,143.43a196.19,196.19,0,0,0-2.36-72.13c-3-13.72-24.12-7.91-21.08,5.81a166,166,0,0,1,2.36,60.51c-2,13.76,19,19.69,21.08,5.81Z" transform="translate(-171.59 -55.31)"/><path class="a825e24e-ddb5-4d95-b87c-ca6416c86479" d="M492.9,152.88a206.26,206.26,0,0,0,25.78-68.1C521.23,71,500.17,65.14,497.6,79A188.75,188.75,0,0,1,474,141.84c-7.21,12.12,11.68,23.13,18.87,11Z" transform="translate(-171.59 -55.31)"/><path class="a825e24e-ddb5-4d95-b87c-ca6416c86479" d="M493.17,305.47c-3.69,32.1-4.13,63.9-.12,96,1.45,11.59,3.29,23.11,5.77,34.53,1.65,7.61,13.15,33.8,9.47,40.29-7,12.25,11.92,23.28,18.87,11,10.62-18.7-4.81-44.18-8.51-63.42-7.58-39.38-8.19-78.68-3.62-118.43,1.6-14-20.27-13.83-21.86,0Z" transform="translate(-171.59 -55.31)"/><path class="a825e24e-ddb5-4d95-b87c-ca6416c86479" d="M461.9,551.51a166.15,166.15,0,0,0,72.15-.51c13.71-3.12,7.91-24.2-5.81-21.08a139.51,139.51,0,0,1-60.53.51c-13.72-2.9-19.59,18.17-5.81,21.08Z" transform="translate(-171.59 -55.31)"/><path class="a825e24e-ddb5-4d95-b87c-ca6416c86479" d="M412.82,459.35H375a63,63,0,0,1-62.91-62.92V363A63,63,0,0,1,375,300h37.84A63,63,0,0,1,475.73,363v33.48A63,63,0,0,1,412.82,459.35ZM375,321.89A41.11,41.11,0,0,0,333.92,363v33.48A41.11,41.11,0,0,0,375,437.49h37.84a41.11,41.11,0,0,0,41.06-41.06V363a41.11,41.11,0,0,0-41.06-41.06Z" transform="translate(-171.59 -55.31)"/><path class="a825e24e-ddb5-4d95-b87c-ca6416c86479" d="M621,459.35H583.13a63,63,0,0,1-62.91-62.92V363A63,63,0,0,1,583.13,300H621A63,63,0,0,1,683.88,363v33.48A63,63,0,0,1,621,459.35ZM583.13,321.89A41.11,41.11,0,0,0,542.07,363v33.48a41.11,41.11,0,0,0,41.06,41.06H621A41.11,41.11,0,0,0,662,396.43V363A41.11,41.11,0,0,0,621,321.89Z" transform="translate(-171.59 -55.31)"/><path class="a825e24e-ddb5-4d95-b87c-ca6416c86479" d="M471.68,389.21H532.5c14.06,0,14.09-21.86,0-21.86H471.68c-14.07,0-14.09,21.86,0,21.86Z" transform="translate(-171.59 -55.31)"/><circle class="a825e24e-ddb5-4d95-b87c-ca6416c86479" cx="239.43" cy="329.29" r="15.57"/><circle class="a825e24e-ddb5-4d95-b87c-ca6416c86479" cx="396.76" cy="329.29" r="15.57"/><path class="a825e24e-ddb5-4d95-b87c-ca6416c86479" d="M558.37,282c12.34-3.86,25.32-1.81,35.22,6.82,10.56,9.21,26.08-6.19,15.46-15.46-15.66-13.65-36.48-18.7-56.5-12.44-13.38,4.18-7.66,25.29,5.82,21.08Z" transform="translate(-171.59 -55.31)"/><path class="a825e24e-ddb5-4d95-b87c-ca6416c86479" d="M216.07,493.29c6.36,63.85-50.33,113.34-44,177.18,5.74,57.75,58.43,94,102.37,123.69,11.69,7.89,22.64-11,11-18.87C226.05,735.15,175,690.53,204.3,613.78c15.42-40.35,38.09-75.65,33.63-120.49-1.39-13.87-23.26-14-21.86,0Z" transform="translate(-171.59 -55.31)"/><path class="a825e24e-ddb5-4d95-b87c-ca6416c86479" d="M689.34,480.09c15.62,49,31.35,98,46.37,147.23,10.38,34,16.68,61.07,2.37,95.91-9.82,23.9-28.45,46.06-51.44,57.55-12.58,6.29-1.53,25.15,11,18.88,129.4-64.68,43.62-228.48,12.75-325.39-4.26-13.35-25.37-7.64-21.08,5.82Z" transform="translate(-171.59 -55.31)"/><path class="a825e24e-ddb5-4d95-b87c-ca6416c86479" d="M312.51,518c-8.18,51.37-25.78,96.47-45.05,144.51-13.8,34.42-20.78,66.39-11.84,102.78,3.35,13.66,24.43,7.87,21.07-5.81-11.53-47,10.45-85.2,27.39-127.38a497.56,497.56,0,0,0,29.5-108.29c2.19-13.76-18.87-19.69-21.07-5.81Z" transform="translate(-171.59 -55.31)"/><path class="a825e24e-ddb5-4d95-b87c-ca6416c86479" d="M363.63,581c-14.38,31.94-26.49,64.63-35,98.65-5.74,22.88-16.91,52.12-3.09,73.61,7.59,11.79,26.52.84,18.88-11-11.47-17.83,4.45-55,9.93-74.16a557.65,557.65,0,0,1,28.18-76c5.72-12.73-13.11-23.85-18.88-11Z" transform="translate(-171.59 -55.31)"/><path class="a825e24e-ddb5-4d95-b87c-ca6416c86479" d="M633.39,521.13c-2.6,32.7,1,63.8,6.59,95.91,7.13,40.85,25,92.48,7.46,132.41-5.6,12.76,13.23,23.9,18.87,11,31.55-71.91-17-164.08-11.06-239.36,1.11-14-20.75-13.95-21.86,0Z" transform="translate(-171.59 -55.31)"/></svg>