<svg id="acd2bd28-9e6f-4ab7-a095-7e1eeba8a123" data-name="Capa 4" xmlns="http://www.w3.org/2000/svg" viewBox="0 0 599.64 786.36"><defs><style>.b5f10973-5534-4d72-8798-6d77b68c0531{fill:#bf3718;opacity:0.5;}.ff006710-da21-4341-8d5b-f803fcecb2ff{fill:#fff;}</style></defs><circle class="b5f10973-5534-4d72-8798-6d77b68c0531" cx="193.39" cy="364.72" r="23.92"/><circle class="b5f10973-5534-4d72-8798-6d77b68c0531" cx="376.1" cy="364.72" r="23.92"/><path class="ff006710-da21-4341-8d5b-f803fcecb2ff" d="M507.81,370c7.12,13.6,13.9,27.35,20.13,41.38,3.21,7.22,9.74,16.72,8.69,25-1.32,10.39-13.18,15.38-22.51,18.87-10.87,4.08-6.16,21.69,4.84,17.56,16-6,39-18,37.32-38.13-.86-10-7.18-20.12-11.18-29.24-6.63-15.14-13.9-30-21.56-44.62-5.44-10.39-21.16-1.19-15.73,9.19Z" transform="translate(-228.98 -116.63)"/><path class="ff006710-da21-4341-8d5b-f803fcecb2ff" d="M652.49,424c-3.41,38.92-6.92,79.84-29.22,113.3-19.18,28.78-67.28,65.48-104.56,65.48-34.37,0-83.28-34.12-101.61-60.84-26.15-38.14-29.56-87.84-33.46-132.43-1-11.58-19.23-11.69-18.21,0,4.57,52.15,9,110.61,44.15,152.45,22.93,27.27,72.68,59,109.13,59S605.06,589,627.84,562c32.85-38.91,38.59-89.19,42.86-138,1-11.67-17.2-11.6-18.21,0Z" transform="translate(-228.98 -116.63)"/><path class="ff006710-da21-4341-8d5b-f803fcecb2ff" d="M471.39,507.56c18,14.5,39.15,20.17,62,16.79,11.55-1.7,6.64-19.25-4.84-17.55a57.64,57.64,0,0,1-44.31-12.11c-9-7.28-22,5.53-12.87,12.87Z" transform="translate(-228.98 -116.63)"/><path class="ff006710-da21-4341-8d5b-f803fcecb2ff" d="M416.12,352.37A36.19,36.19,0,0,1,457.5,346c10.44,5.24,19.67-10.46,9.19-15.73-21.27-10.68-46.16-7.24-63.44,9.26-8.5,8.1,4.39,21,12.87,12.87Z" transform="translate(-228.98 -116.63)"/><path class="ff006710-da21-4341-8d5b-f803fcecb2ff" d="M626,339.5c-17.28-16.5-42.18-19.94-63.44-9.26-10.48,5.26-1.27,21,9.19,15.73a36.18,36.18,0,0,1,41.37,6.4c8.48,8.09,21.38-4.76,12.88-12.87Z" transform="translate(-228.98 -116.63)"/><path class="ff006710-da21-4341-8d5b-f803fcecb2ff" d="M696.4,414.86c-53.17,19.2-62.78-57.18-74.57-89.79-8-22.26-17.3-45.66-30.18-65.59-22.06-34.17-58.22-44.39-97.07-34.59-39.26,9.89-66.57,35.65-77.26,74.6-8.68,31.6-6.68,68.59-36.94,88.56-21.78,14.37-48.42,22.48-73.92,27.22C295,417.4,299.83,435,311.3,432.82c33.2-6.16,79.17-19.25,100.14-48.17,15.49-21.35,15.49-50.23,22-74.77,9.41-35.61,29.62-58.56,66-67.44,131.41-32.06,84.44,232.36,201.82,190,10.94-4,6.22-21.55-4.84-17.55Z" transform="translate(-228.98 -116.63)"/><path class="ff006710-da21-4341-8d5b-f803fcecb2ff" d="M584.53,655.34c31.39-8.27,53-36.59,84.12-41.35,29.47-4.52,52-8.45,77.6-26.41,37-26,58.42-74.15,24-111.35V489.1c32.57-27.39,70.41-65.58,54.75-112.49-18.59-55.7-88.63-54.22-115.85-99.38-15-24.82-12.1-54.61-22.41-81.3a128.69,128.69,0,0,0-38.58-53.09c-41.52-33.84-84.62-30-132.12-16-32.89,9.69-60.95-5.29-94.14-3a131.35,131.35,0,0,0-72.05,27.39C315.25,178.34,296,220.76,295.9,264.42c0,16.62,4.93,34.27,3,50.84-2.91,25.28-14.46,41.81-31.07,59.83-16.41,17.78-34.68,36.32-38.28,61.37-2.48,17.29,3.11,30.56,12.15,45,13.09,20.89,17.92,30.65,9.75,56-3.43,10.62-10,18.36-11.35,29.79-5.87,51.35,50.4,65.85,89.21,68.34,35.73,2.29,62.69,21.45,96.83,28.31,18.46,3.71,36.32,4.06,49.75-10.27,8-8.54-4.84-21.44-12.87-12.87-19.41,20.7-60.53-4.31-81-12.31-28.42-11.12-52.34-6.21-81.35-13-29.16-6.88-47.07-28.24-37.82-60.15,2.84-9.81,10.28-17.9,12.36-28.18,2.5-12.36.53-22.54-4.67-34-8.93-19.74-27.51-30.81-22.69-57.09,3.12-17,17.92-31.32,28.84-43.72,13.7-15.56,29-29.7,35.91-49.9,8.72-25.59,1.16-51.73,1.49-77.89.41-32.63,11.63-63.79,34.46-87.52,28.24-29.34,68-39.67,107.44-32.84,23.06,4,35.6,10.83,58,3.68,37.16-11.88,69.08-22.81,106.78-1.73,27.85,15.58,46.28,41.92,53.77,72.59,11.11,45.53,11.78,78.23,55.89,102.78,26.21,14.59,58.66,23.8,73.61,52.69,21.59,41.72-18,78.06-46.69,102.16-3.87,3.25-3.11,9.51,0,12.87,28,30.23,3.06,67.61-24.82,85.94-21.72,14.27-43.47,19.42-68.92,20.78-33.73,1.82-51.12,33.32-83.91,42-11.32,3-6.52,20.55,4.84,17.56Z" transform="translate(-228.98 -116.63)"/><path class="ff006710-da21-4341-8d5b-f803fcecb2ff" d="M314.66,424.82c-4.54,39.48,30.4,68,67.75,67.24,11.7-.25,11.74-18.46,0-18.21-28.3.6-53-19.25-49.55-49,1.34-11.62-16.88-11.52-18.2,0Z" transform="translate(-228.98 -116.63)"/><path class="ff006710-da21-4341-8d5b-f803fcecb2ff" d="M657.06,484.64c27.26-3.56,50.48-24,54.38-51.87,1.6-11.46-15.94-16.41-17.56-4.84-2.67,19.07-17.09,35.92-36.82,38.5-11.45,1.5-11.6,19.73,0,18.21Z" transform="translate(-228.98 -116.63)"/><path class="ff006710-da21-4341-8d5b-f803fcecb2ff" d="M494.25,194c-35.38-1.48-64.77,15.21-88.17,41-30.7,33.87-51.45,101-101.14,108.28-11.55,1.68-6.64,19.23,4.84,17.55C396.23,348.24,395,208,494.25,212.19c11.72.49,11.69-17.72,0-18.21Z" transform="translate(-228.98 -116.63)"/><path class="ff006710-da21-4341-8d5b-f803fcecb2ff" d="M326.5,191.07c19.08,10.64,37.45,11.16,58.72,7.07,29.69-5.7,70-27.81,100.25-22.77,11.46,1.92,16.39-15.62,4.84-17.55-50.68-8.47-105.81,44.74-154.62,17.53-10.25-5.71-19.44,10-9.19,15.72Z" transform="translate(-228.98 -116.63)"/><path class="ff006710-da21-4341-8d5b-f803fcecb2ff" d="M534.06,209.28C622.52,208,634.67,318.76,675.32,374.83c30.27,41.76,77.15,62.77,128.33,59.9,11.65-.65,11.73-18.86,0-18.2-93,5.2-122.7-68.32-157-139-22.38-46.08-57.49-87.21-112.55-86.43-11.7.16-11.74,18.37,0,18.2Z" transform="translate(-228.98 -116.63)"/><path class="ff006710-da21-4341-8d5b-f803fcecb2ff" d="M534.12,177.3c45.37-6.07,97-11.53,128.65,28.63,7.24,9.2,20.05-3.77,12.88-12.88-34.62-44-91.35-40.68-141.53-34-11.44,1.53-11.59,19.76,0,18.21Z" transform="translate(-228.98 -116.63)"/><path class="ff006710-da21-4341-8d5b-f803fcecb2ff" d="M564.4,601.12c8.29,62.09,16.56,115.12,79.08,142.09,17.12,7.39,33.44,7.47,34.6,36.3.41,10.28-8.49,24.33-13.76,33.17-11.18,18.74-28.2,35.4-46.27,47.45-38.93,26-92.4,26.94-136.72,17.6-40.84-8.6-88.44-27.81-111.15-65.12-8.2-13.48-15.3-32.48-10.34-48.14,5.77-18.24,28.52-21.89,45.19-29,56-24,84.18-79.48,77.81-139.19-1.23-11.53-19.45-11.65-18.21,0,3,28.38-.93,56.26-16.35,80.94-18.16,29.05-44.38,38.92-75,50.48-23,8.7-34.2,23.67-33.2,49,3.06,77.55,96,114.84,160.84,122.68,75.27,9.09,160.13-21,190-97,8.81-22.41,5.74-46.78-13.49-62.86s-44.26-17.29-62.71-36.18c-25.4-26-27.54-68.15-32.09-102.21-1.53-11.44-19.75-11.6-18.21,0Z" transform="translate(-228.98 -116.63)"/><path class="ff006710-da21-4341-8d5b-f803fcecb2ff" d="M529.78,903h0c-29.53,0-60.74-5.72-90.28-16.56-40.27-14.77-69.35-36.11-86.44-63.42-11.34-18.13-19.89-47.76-11.89-70a40.06,40.06,0,0,1,25.9-25.2l2.27-.75c30.65-10.18,52.8-17.54,71.79-42.67,1-1.32,1.9-2.74,2.82-4.15l5.61-8.55,8,2.7a226.05,226.05,0,0,0,131.92,3.51l8.68-2.45,4.05,8.06C612,703.07,634,720,659.61,727.73a54,54,0,0,1,33.3,74.73c-19.18,40.41-53.2,73.89-88.78,87.39C581.16,898.56,556.14,903,529.78,903ZM458.52,697.62c-23.08,30.51-50.52,39.62-82.3,50.17l-2.25.75a18.18,18.18,0,0,0-12.24,11.86c-5.24,14.54,1.17,37.13,9.85,51C386,834.51,411.42,852.85,447,865.9c27.15,10,55.76,15.23,82.75,15.23h0c23.71,0,46.11-3.94,66.6-11.71,30-11.4,60.18-41.36,76.78-76.33a31.83,31.83,0,0,0,.33-26.61,32.28,32.28,0,0,0-20.19-17.83c-28.28-8.52-52.39-26-66.18-47.56A248.5,248.5,0,0,1,458.52,697.62Z" transform="translate(-228.98 -116.63)"/><path class="ff006710-da21-4341-8d5b-f803fcecb2ff" d="M258.39,595.42c43.84-28,96.84-33.89,143.08-56.81,10.5-5.2,1.29-20.91-9.19-15.72-46.31,23-99.06,28.73-143.08,56.8-9.85,6.29-.73,22,9.19,15.73Z" transform="translate(-228.98 -116.63)"/><path class="ff006710-da21-4341-8d5b-f803fcecb2ff" d="M354.74,634.62a254.88,254.88,0,0,0,85.47-53.8c8.5-8.09-4.39-21-12.88-12.87a231.85,231.85,0,0,1-77.43,49.12c-10.83,4.15-6.13,21.76,4.84,17.55Z" transform="translate(-228.98 -116.63)"/><path class="ff006710-da21-4341-8d5b-f803fcecb2ff" d="M617.38,567.43C635.06,593,661.29,608.51,692.14,612c11.62,1.32,11.53-16.9,0-18.21a83,83,0,0,1-59-35.55c-6.62-9.58-22.41-.48-15.73,9.19Z" transform="translate(-228.98 -116.63)"/><path class="ff006710-da21-4341-8d5b-f803fcecb2ff" d="M655.4,504.14c37.19,19.63,78.58,23.66,118.73,11,11.14-3.52,6.38-21.11-4.84-17.56-35.54,11.24-71.69,8.31-104.7-9.12C654.23,483,645,498.66,655.4,504.14Z" transform="translate(-228.98 -116.63)"/><circle class="ff006710-da21-4341-8d5b-f803fcecb2ff" cx="227.31" cy="286.06" r="9.8"/><circle class="ff006710-da21-4341-8d5b-f803fcecb2ff" cx="343.67" cy="286.06" r="9.8"/></svg>